SplineFontDB: 3.0
FontName: GanjNamehSans-Regular
FullName: GanjNamehSans Regular
FamilyName: GanjNamehSans
Weight: Regular
Copyright: Copyright (c) 2016 Copyright Holder (info@font-store.ir), with Reserved Font Name "Ganjnameh" \n\n Ganjnameh is a new redesign of Iranian Font Family by Neviseh Pardaz Co. Ltd. (www.nevisa.com), Hooman Mehr, Hadi Navid
UComments: "2015-5-13: Created with FontForge (http://fontforge.org)"
Version: Version:0.0.3;RFB:1.2.5;Building:2016-04-17 15:37:27.519176
FONDName: RITA
ItalicAngle: 0
UnderlinePosition: 500
UnderlineWidth: 59
Ascent: 800
Descent: 500
InvalidEm: 0
sfntRevision: 0x00010000
LayerCount: 2
Layer: 0 0 "Back" 1
Layer: 1 0 "Fore" 0
PreferredKerning: 4
XUID: [1021 828 -1901974348 32649]
StyleMap: 0x0040
FSType: 0
OS2Version: 0
OS2_WeightWidthSlopeOnly: 0
OS2_UseTypoMetrics: 0
CreationTime: 1431477301
ModificationTime: 1460891247
PfmFamily: 33
TTFWeight: 400
TTFWidth: 5
LineGap: 100
VLineGap: 0
Panose: 2 0 5 3 0 0 0 0 0 0
OS2TypoAscent: 800
OS2TypoAOffset: 0
OS2TypoDescent: -500
OS2TypoDOffset: 0
OS2TypoLinegap: 100
OS2WinAscent: 1100
OS2WinAOffset: 0
OS2WinDescent: 700
OS2WinDOffset: 0
HheadAscent: 1100
HheadAOffset: 0
HheadDescent: -700
HheadDOffset: 0
OS2SubXSize: 780
OS2SubYSize: 839
OS2SubXOff: -107
OS2SubYOff: 168
OS2SupXSize: 780
OS2SupYSize: 839
OS2SupXOff: 369
OS2SupYOff: 575
OS2StrikeYSize: 59
OS2StrikeYPos: 310
OS2Vendor: 'RITA'
OS2CodePages: 00000040.00000000
OS2UnicodeRanges: 80002003.80002000.00000008.00000000
MacStyle: 0
Lookup: 4 1 1 "'ccmp' Glyph Composition/Decomposition in Arabic lookup 5" { "'ccmp' Glyph Composition/Decomposition in Arabic lookup 5-1"  } ['ccmp' ('DFLT' <'dflt' > 'arab' <'dflt' > ) ]
Lookup: 1 9 0 "'isol' Isolated Forms in Latin lookup 1" { "'isol' Isolated Forms in Latin lookup 1-1"  } ['isol' ('DFLT' <'dflt' > 'arab' <'dflt' > ) ]
Lookup: 1 9 0 "'fina' Terminal Forms in Arabic lookup 3" { "'fina' Terminal Forms in Arabic lookup 3-1"  } ['fina' ('DFLT' <'dflt' > 'arab' <'dflt' > ) ]

StartChar: _.alef.isol
Encoding: 65536 -1 0
GlifName: _.alef.isol
Width: 218
VWidth: 1304
GlyphClass: 2
Flags: HMW
LayerCount: 2
Fore
SplineSet
64 -0 m 1
 64 800 l 1
 154 800 l 1
 154 -0 l 1
 64 -0 l 1
EndSplineSet
Colour: ffda6b
EndChar

StartChar: _.alef.fina
Encoding: 65537 -1 1
GlifName: _.alef.fina
Width: 275
VWidth: 1304
GlyphClass: 2
Flags: HMW
LayerCount: 2
Fore
SplineSet
64 194 m 2
 64 800 l 1
 154 800 l 1
 154 214 l 2
 154 127 208 100 255 100 c 2
 275 100 l 1
 275 -0 l 1
 255 -0 l 2
 105 0 64 99 64 194 c 2
EndSplineSet
Colour: ffda6b
EndChar

StartChar: _.beh.isol
Encoding: 65540 -1 4
GlifName: _.beh.isol
Width: 925
VWidth: 1304
GlyphClass: 2
UnlinkRmOvrlpSave: 1
Flags: HMW
LayerCount: 2
Fore
SplineSet
861 205 m 0
 861 6 613 0 390 -0 c 0
 193 0 64 36 64 189 c 0
 64 238 78 298 106 374 c 1
 188 349 l 1
 165 294 152 249 152 214 c 0
 152 131 225 100 416 100 c 0
 582 100 774 119 770 210 c 1
 764 256 745 316 719 386 c 1
 811 425 l 1
 831 370 848 311 857 253 c 0
 860 236 861 220 861 205 c 0
EndSplineSet
Colour: ffda6b
EndChar

StartChar: _.beh.fina
Encoding: 65541 -1 5
GlifName: _.beh.fina
Width: 1031
VWidth: 1304
GlyphClass: 2
UnlinkRmOvrlpSave: 1
Flags: HMW
LayerCount: 2
Fore
SplineSet
804 61 m 1
 729 6 570 0 390 -0 c 0
 193 0 64 36 64 189 c 0
 64 238 78 298 106 374 c 1
 188 349 l 1
 165 294 152 249 152 214 c 0
 152 131 225 100 416 100 c 0
 625 100 763 113 777 184 c 1
 788 301 l 1
 873 296 l 1
 865 192 l 2
 865 189 865 187 865 184 c 0
 865 114 927 100 1008 100 c 2
 1031 100 l 1
 1031 -0 l 1
 1008 -0 l 2
 901 0 837 20 804 61 c 1
EndSplineSet
Colour: ffda6b
EndChar

StartChar: _.beh.medi
Encoding: 65542 -1 6
GlifName: _.beh.medi
Width: 466
VWidth: 1304
GlyphClass: 2
UnlinkRmOvrlpSave: 1
Flags: HMW
LayerCount: 2
Fore
SplineSet
-50 50 m 0
 -50 76 -26 100 0 100 c 2
 105 100 l 2
 162 100 233 116 233 184 c 2
 233 321 l 1
 323 321 l 1
 323 184 l 2
 323 116 394 100 451 100 c 2
 466 100 l 1
 466 -0 l 1
 451 -0 l 2
 372 0 316 18 279 55 c 1
 279 56 l 1
 279 55 l 1
 242 18 183 0 105 -0 c 2
 0 -0 l 2
 -26 0 -50 24 -50 50 c 0
EndSplineSet
Colour: ffda6b
EndChar

StartChar: _.beh.init
Encoding: 65543 -1 7
GlifName: _.beh.init
Width: 387
VWidth: 1197
GlyphClass: 1
UnlinkRmOvrlpSave: 1
Flags: HMW
LayerCount: 2
Fore
SplineSet
-50 50 m 0
 -50 76 -26 100 0 100 c 2
 122 100 l 2
 171 100 229 124 229 177 c 0
 229 226 210 299 178 386 c 1
 270 425 l 1
 304 328 323 245 323 180 c 0
 323 56 243 0 122 -0 c 2
 0 -0 l 2
 -26 0 -50 24 -50 50 c 0
EndSplineSet
Colour: ffda6b
EndChar

StartChar: _.heh.isol
Encoding: 65544 -1 8
GlifName: _.heh.isol
Width: 799
VWidth: 1304
GlyphClass: 1
UnlinkRmOvrlpSave: 1
Flags: HMW
LayerCount: 2
Fore
SplineSet
686 -360 m 1
 580 -388 496 -400 415 -400 c 0
 178 -400 64 -268 64 -117 c 0
 64 36 180 206 401 280 c 1
 359 294 314 312 262 330 c 0
 247 335 235 337 225 337 c 0
 201 337 188 325 177 308 c 2
 155 274 l 1
 97 312 l 1
 143 386 l 2
 165 422 188 445 225 445 c 0
 242 445 261 441 284 431 c 0
 459 360 595 320 719 320 c 0
 724 320 730 320 735 320 c 1
 714 220 l 1
 693 220 674 220 654 221 c 1
 614 221 l 1
 315 203 155 35 155 -106 c 0
 155 -211 244 -301 431 -301 c 0
 495 -301 572 -290 662 -264 c 1
 686 -360 l 1
EndSplineSet
Colour: ffda6b
EndChar

StartChar: _.heh.fina
Encoding: 65545 -1 9
GlifName: _.heh.fina
Width: 815
VWidth: 1304
GlyphClass: 1
UnlinkRmOvrlpSave: 1
Flags: HMW
LayerCount: 2
Fore
SplineSet
686 -360 m 1
 580 -388 496 -400 415 -400 c 0
 178 -400 64 -268 64 -117 c 0
 64 36 180 206 401 280 c 1
 359 294 314 312 262 330 c 0
 247 335 235 337 225 337 c 0
 201 337 188 325 177 308 c 2
 155 274 l 1
 97 312 l 1
 143 386 l 2
 165 422 188 445 225 445 c 0
 242 445 261 441 284 431 c 0
 459 360 595 320 719 320 c 0
 724 320 730 320 735 320 c 1
 714 220 l 1
 693 220 674 220 654 221 c 1
 609 221 l 1
 626 167 663 100 752 100 c 2
 815 100 l 1
 815 -0 l 1
 753 -0 l 2
 587 0 557 86 526 209 c 1
 284 167 155 18 155 -108 c 0
 155 -212 244 -301 431 -301 c 0
 495 -301 572 -290 662 -264 c 1
 686 -360 l 1
EndSplineSet
Colour: ffda6b
EndChar

StartChar: _.heh.medi
Encoding: 65546 -1 10
GlifName: _.heh.medi
Width: 823
VWidth: 1304
GlyphClass: 1
UnlinkRmOvrlpSave: 1
Flags: HMW
LayerCount: 2
Fore
SplineSet
-50 49 m 0
 -50 76 -27 100 -1 100 c 2
 137 100 l 2
 307 100 384 189 481 253 c 1
 415 275 347 306 249 340 c 0
 234 345 222 347 212 347 c 0
 188 347 175 334 165 317 c 2
 143 284 l 1
 85 322 l 1
 131 397 l 2
 152 433 175 455 212 455 c 0
 229 455 249 451 273 441 c 0
 454 367 541 320 743 320 c 1
 722 220 l 1
 681 220 l 2
 658 220 639 218 619 213 c 1
 637 161 675 100 760 100 c 2
 823 100 l 1
 823 -0 l 1
 761 -0 l 2
 608 0 569 74 541 181 c 1
 435 118 365 0 145 -0 c 2
 -1 -0 l 2
 -25 0 -50 24 -50 49 c 0
EndSplineSet
Colour: ffda6b
EndChar

StartChar: _.heh.init
Encoding: 65547 -1 11
GlifName: _.heh.init
Width: 807
VWidth: 1304
GlyphClass: 1
UnlinkRmOvrlpSave: 1
Flags: HMW
LayerCount: 2
Fore
SplineSet
-50 49 m 0
 -50 76 -27 100 -1 100 c 2
 137 100 l 2
 307 100 384 189 481 253 c 1
 415 275 347 306 249 340 c 0
 234 345 222 347 212 347 c 0
 188 347 175 334 165 317 c 2
 143 284 l 1
 85 322 l 1
 131 397 l 2
 152 433 175 455 212 455 c 0
 229 455 249 451 273 441 c 0
 454 367 541 320 743 320 c 1
 722 220 l 1
 681 220 l 2
 466 220 445 0 145 -0 c 2
 -1 -0 l 2
 -25 0 -50 24 -50 49 c 0
EndSplineSet
Colour: ffda6b
EndChar

StartChar: _.sin.isol
Encoding: 65548 -1 12
GlifName: _.sin.isol
Width: 1455
VWidth: 1304
GlyphClass: 1
UnlinkRmOvrlpSave: 1
Flags: HMW
LayerCount: 2
Fore
SplineSet
64 -68 m 0
 64 5 92 97 160 210 c 1
 224 170 l 1
 177 82 157 13 157 -41 c 0
 157 -156 249 -200 357 -200 c 0
 508 -200 690 -113 690 -20 c 0
 690 -17 690 -14 690 -11 c 0
 683 38 645 117 580 225 c 1
 666 289 l 1
 673 277 680 266 686 256 c 0
 749 158 818 100 893 100 c 0
 932 100 975 125 991 191 c 2
 1022 319 l 1
 1111 298 l 1
 1074 144 l 1
 1094 126 1135 100 1192 100 c 0
 1241 100 1300 124 1300 177 c 0
 1300 226 1278 299 1247 386 c 1
 1339 425 l 1
 1373 328 1391 245 1391 180 c 0
 1391 57 1311 0 1192 -0 c 0
 1128 0 1060 24 1027 54 c 1
 995 21 950 0 897 -0 c 0
 849 0 818 4 776 29 c 1
 778 19 780 10 780 -0 c 0
 780 -5 780 -9 780 -14 c 0
 780 -189 557 -301 360 -301 c 0
 204 -301 64 -231 64 -68 c 0
EndSplineSet
Colour: ffda6b
EndChar

StartChar: _.sin.fina
Encoding: 65549 -1 13
GlifName: _.sin.fina
Width: 1575
VWidth: 1304
GlyphClass: 1
UnlinkRmOvrlpSave: 1
Flags: HMW
LayerCount: 2
Fore
SplineSet
64 -68 m 0
 64 5 92 97 160 210 c 1
 224 170 l 1
 177 82 157 13 157 -41 c 0
 157 -156 249 -200 357 -200 c 0
 508 -200 690 -113 690 -20 c 0
 690 -17 690 -14 690 -11 c 0
 683 38 645 117 580 225 c 1
 666 289 l 1
 673 277 680 266 686 256 c 0
 749 158 818 100 893 100 c 0
 932 100 975 125 991 191 c 2
 1022 319 l 1
 1111 298 l 1
 1074 144 l 1
 1094 126 1135 100 1192 100 c 0
 1250 100 1303 127 1326 145 c 1
 1288 303 l 1
 1371 351 l 1
 1409 191 l 2
 1423 136 1449 100 1531 100 c 2
 1575 100 l 1
 1575 -0 l 1
 1531 -0 l 2
 1453 0 1404 21 1372 54 c 1
 1335 24 1256 0 1192 -0 c 0
 1127 0 1060 24 1027 54 c 1
 995 21 950 0 897 -0 c 0
 849 0 818 4 776 29 c 1
 778 19 780 10 780 -0 c 0
 780 -5 780 -9 780 -14 c 0
 780 -189 557 -301 360 -301 c 0
 204 -301 64 -231 64 -68 c 0
EndSplineSet
Colour: ffda6b
EndChar

StartChar: _.sin.medi
Encoding: 65550 -1 14
GlifName: _.sin.medi
Width: 1124
VWidth: 1304
GlyphClass: 1
UnlinkRmOvrlpSave: 1
Flags: HMW
LayerCount: 2
Fore
SplineSet
-50 50 m 0
 -50 76 -26 100 0 100 c 2
 104 100 l 2
 185 100 212 136 226 191 c 2
 257 319 l 1
 344 298 l 1
 306 138 l 1
 328 121 368 100 418 100 c 0
 500 100 527 136 541 191 c 2
 572 319 l 1
 659 298 l 1
 622 144 l 1
 642 126 685 100 740 100 c 0
 798 100 852 127 875 145 c 1
 836 303 l 1
 919 351 l 1
 957 191 l 2
 971 136 998 100 1079 100 c 2
 1124 100 l 1
 1124 -0 l 1
 1079 -0 l 2
 1003 0 952 21 920 54 c 1
 883 24 804 0 740 -0 c 0
 676 0 610 24 577 54 c 1
 545 21 496 0 418 -0 c 0
 356 0 294 22 258 50 c 1
 226 19 178 0 103 -0 c 2
 0 -0 l 1
 -25 1 -50 24 -50 50 c 0
EndSplineSet
Colour: ffda6b
EndChar

StartChar: _.sin.init
Encoding: 65551 -1 15
GlifName: _.sin.init
Width: 1005
VWidth: 1304
GlyphClass: 1
UnlinkRmOvrlpSave: 1
Flags: HMW
LayerCount: 2
Fore
SplineSet
-50 50 m 0
 -50 76 -26 100 0 100 c 2
 104 100 l 2
 185 100 212 136 226 191 c 2
 257 319 l 1
 344 298 l 1
 306 138 l 1
 328 121 368 100 418 100 c 0
 500 100 527 136 541 191 c 2
 572 319 l 1
 659 298 l 1
 622 144 l 1
 642 126 685 100 740 100 c 0
 789 100 850 124 850 177 c 0
 850 226 828 299 796 386 c 1
 888 425 l 1
 922 328 941 245 941 180 c 0
 941 56 861 0 740 -0 c 0
 676 0 610 24 577 54 c 1
 545 21 496 0 418 -0 c 0
 356 0 294 22 258 50 c 1
 217 9 158 0 103 -0 c 2
 0 -0 l 1
 -25 1 -50 24 -50 50 c 0
EndSplineSet
Colour: ffda6b
EndChar

StartChar: _.sad.isol
Encoding: 65552 -1 16
GlifName: _.sad.isol
Width: 1488
VWidth: 1304
GlyphClass: 1
UnlinkRmOvrlpSave: 1
Flags: HMW
LayerCount: 2
Fore
SplineSet
64 -68 m 0
 64 5 92 97 160 210 c 1
 224 170 l 1
 177 82 157 13 157 -41 c 0
 157 -156 249 -200 357 -200 c 0
 508 -200 690 -113 690 -20 c 0
 690 -17 690 -14 690 -11 c 0
 684 38 645 117 580 225 c 1
 666 289 l 1
 673 277 680 266 686 256 c 0
 717 210 750 156 810 125 c 1
 876 205 1067 415 1199 433 c 0
 1208 434 1218 435 1227 435 c 0
 1334 435 1424 342 1424 227 c 0
 1424 211 1422 196 1419 180 c 0
 1401 78 1324 0 1174 -0 c 2
 905 -0 l 1
 850 2 807 12 777 29 c 1
 778 19 780 10 780 -0 c 0
 780 -5 780 -9 780 -14 c 0
 780 -189 557 -301 360 -301 c 0
 204 -301 64 -231 64 -68 c 0
1333 188 m 0
 1333 250 1280 314 1210 314 c 0
 1101 314 967 181 892 100 c 1
 1144 100 l 2
 1244 100 1308 141 1329 159 c 1
 1332 168 1333 178 1333 188 c 0
EndSplineSet
Colour: ffda6b
EndChar

StartChar: _.sad.fina
Encoding: 65553 -1 17
GlifName: _.sad.fina
Width: 1540
VWidth: 1304
GlyphClass: 1
UnlinkRmOvrlpSave: 1
Flags: HMW
LayerCount: 2
Fore
SplineSet
1424 227 m 0
 1424 179 1411 138 1391 106 c 1
 1422 100 1466 99 1504 99 c 0
 1517 99 1529 100 1540 100 c 1
 1540 -0 l 1
 1458 0 1390 0 1319 33 c 1
 1281 12 1234 0 1174 -0 c 2
 905 -0 l 1
 850 2 807 12 777 29 c 1
 778 19 780 10 780 -0 c 0
 780 -5 780 -9 780 -14 c 0
 780 -189 557 -301 360 -301 c 0
 204 -301 64 -231 64 -68 c 0
 64 5 92 97 160 210 c 1
 224 170 l 1
 177 82 157 13 157 -41 c 0
 157 -156 249 -200 357 -200 c 0
 508 -200 690 -113 690 -20 c 0
 690 -17 690 -14 690 -11 c 0
 684 38 645 117 580 225 c 1
 666 289 l 1
 673 277 680 266 686 256 c 0
 717 210 750 156 810 125 c 1
 876 205 1067 415 1199 433 c 0
 1208 434 1218 435 1227 435 c 0
 1334 435 1424 342 1424 227 c 0
1333 188 m 0
 1333 250 1280 314 1210 314 c 0
 1101 314 967 181 892 100 c 1
 1144 100 l 2
 1244 100 1308 141 1329 159 c 1
 1332 168 1333 178 1333 188 c 0
EndSplineSet
Colour: ffda6b
EndChar

StartChar: _.sad.medi
Encoding: 65554 -1 18
GlifName: _.sad.medi
Width: 1023
VWidth: 1304
GlyphClass: 1
UnlinkRmOvrlpSave: 1
Flags: HMW
LayerCount: 2
Fore
SplineSet
907 227 m 0
 907 179 895 138 875 106 c 1
 906 100 949 99 987 99 c 0
 1000 99 1012 100 1023 100 c 1
 1023 -0 l 1
 941 0 873 0 802 33 c 1
 765 12 717 0 658 -0 c 2
 381 -0 l 2
 303 0 246 18 209 55 c 1
 209 56 l 1
 209 55 l 1
 172 18 114 0 35 -0 c 2
 0 -0 l 2
 -25 0 -50 24 -50 50 c 0
 -50 76 -25 100 0 100 c 2
 35 100 l 2
 92 100 163 116 163 184 c 2
 163 290 l 1
 253 290 l 1
 253 184 l 2
 253 153 268 134 290 120 c 1
 353 196 549 415 684 433 c 0
 693 434 702 435 711 435 c 0
 818 435 907 342 907 227 c 0
817 188 m 0
 817 250 764 314 693 314 c 0
 583 314 447 182 373 100 c 1
 628 100 l 2
 726 100 791 141 812 159 c 1
 815 169 817 178 817 188 c 0
EndSplineSet
Colour: ffda6b
EndChar

StartChar: _.sad.init
Encoding: 65555 -1 19
GlifName: _.sad.init
Width: 971
VWidth: 1304
GlyphClass: 1
UnlinkRmOvrlpSave: 1
Flags: HMW
LayerCount: 2
Fore
SplineSet
-50 50 m 0
 -50 76 -25 100 0 100 c 2
 35 100 l 2
 92 100 163 116 163 184 c 2
 163 290 l 1
 253 290 l 1
 253 184 l 2
 253 153 268 134 290 120 c 1
 353 196 549 415 684 433 c 0
 693 434 702 435 711 435 c 0
 818 435 907 342 907 227 c 0
 907 211 905 196 902 180 c 0
 884 78 807 0 658 -0 c 2
 381 -0 l 2
 303 0 246 18 209 55 c 1
 209 56 l 1
 209 55 l 1
 172 18 114 0 35 -0 c 2
 0 -0 l 2
 -25 0 -50 24 -50 50 c 0
817 188 m 0
 817 250 764 314 693 314 c 0
 583 314 447 182 373 100 c 1
 628 100 l 2
 726 100 791 141 812 159 c 1
 815 169 817 178 817 188 c 0
EndSplineSet
Colour: ffda6b
EndChar

StartChar: _.ta.isol
Encoding: 65556 -1 20
GlifName: _.ta.isol
Width: 900
VWidth: 1304
GlyphClass: 1
UnlinkRmOvrlpSave: 1
Flags: HMW
LayerCount: 2
Fore
SplineSet
64 53 m 1
 105 145 l 1
 135 128 170 114 208 107 c 1
 222 124 248 156 282 193 c 1
 282 800 l 1
 372 800 l 1
 372 283 l 1
 450 356 540 423 613 433 c 0
 622 434 631 435 640 435 c 0
 747 435 836 342 836 227 c 0
 836 211 834 196 831 180 c 0
 813 78 736 0 587 -0 c 2
 284 -0 l 2
 279 0 273 -1 268 -1 c 0
 197 -1 126 22 64 53 c 1
746 188 m 0
 746 250 693 314 622 314 c 0
 512 314 377 182 303 100 c 1
 558 100 l 2
 656 100 720 141 741 159 c 1
 744 169 746 178 746 188 c 0
EndSplineSet
Colour: ffda6b
EndChar

StartChar: _.ta.fina
Encoding: 65557 -1 21
GlifName: _.ta.fina
Width: 953
VWidth: 1304
GlyphClass: 1
UnlinkRmOvrlpSave: 1
Flags: HMW
LayerCount: 2
Fore
SplineSet
836 227 m 0
 836 179 824 138 804 106 c 1
 835 100 879 99 917 99 c 0
 930 99 942 100 953 100 c 1
 953 -0 l 1
 871 0 802 0 731 33 c 1
 694 12 646 0 587 -0 c 2
 284 -0 l 2
 279 0 273 -1 268 -1 c 0
 197 -1 126 22 64 53 c 1
 105 145 l 1
 135 128 170 114 208 107 c 1
 222 124 248 156 282 193 c 1
 282 800 l 1
 372 800 l 1
 372 283 l 1
 450 356 540 423 613 433 c 0
 622 434 631 435 640 435 c 0
 747 435 836 342 836 227 c 0
746 188 m 0
 746 250 693 314 622 314 c 0
 512 314 377 182 303 100 c 1
 558 100 l 2
 656 100 720 141 741 159 c 1
 744 169 746 178 746 188 c 0
EndSplineSet
Colour: ffda6b
EndChar

StartChar: _.ta.medi
Encoding: 65558 -1 22
GlifName: _.ta.medi
Width: 795
VWidth: 1304
GlyphClass: 1
UnlinkRmOvrlpSave: 1
Flags: HMW
LayerCount: 2
Fore
SplineSet
678 227 m 0
 678 179 666 138 646 106 c 1
 677 100 720 99 758 99 c 0
 771 99 784 100 795 100 c 1
 795 -0 l 1
 713 0 644 0 573 33 c 1
 536 12 488 0 429 -0 c 2
 0 -0 l 2
 -25 0 -50 24 -50 50 c 0
 -50 76 -26 100 -1 100 c 2
 44 100 l 1
 54 114 83 149 124 193 c 1
 124 800 l 1
 213 800 l 1
 213 283 l 1
 291 356 382 423 455 433 c 0
 464 434 473 435 482 435 c 0
 589 435 678 342 678 227 c 0
588 188 m 0
 588 250 535 314 464 314 c 0
 354 314 219 182 145 100 c 1
 399 100 l 2
 497 100 562 141 583 159 c 1
 586 169 588 178 588 188 c 0
EndSplineSet
Colour: ffda6b
EndChar

StartChar: _.ta.init
Encoding: 65559 -1 23
GlifName: _.ta.init
Width: 742
VWidth: 1304
GlyphClass: 1
UnlinkRmOvrlpSave: 1
Flags: HMW
LayerCount: 2
Fore
SplineSet
-50 50 m 0
 -50 76 -26 100 -1 100 c 2
 44 100 l 1
 54 114 83 149 124 193 c 1
 124 800 l 1
 213 800 l 1
 213 283 l 1
 291 356 382 423 455 433 c 0
 464 434 473 435 482 435 c 0
 589 435 678 342 678 227 c 0
 678 211 676 196 673 180 c 0
 655 78 578 0 429 -0 c 2
 0 -0 l 2
 -25 0 -50 24 -50 50 c 0
588 188 m 0
 588 250 535 314 464 314 c 0
 354 314 219 182 145 100 c 1
 399 100 l 2
 497 100 562 141 583 159 c 1
 586 169 588 178 588 188 c 0
EndSplineSet
Colour: ffda6b
EndChar

StartChar: _.ein.isol
Encoding: 65560 -1 24
GlifName: _.ein.isol
Width: 750
VWidth: 1304
GlyphClass: 1
UnlinkRmOvrlpSave: 1
Flags: HMW
LayerCount: 2
Fore
SplineSet
686 -360 m 1
 581 -388 496 -400 415 -400 c 0
 178 -400 64 -267 64 -114 c 0
 64 -6 122 112 233 199 c 1
 180 252 149 318 139 377 c 0
 137 391 135 405 135 418 c 0
 135 550 252 613 387 613 c 0
 427 613 468 608 509 597 c 1
 487 503 l 1
 460 508 434 510 410 510 c 0
 313 510 246 475 235 439 c 0
 234 434 234 430 234 425 c 0
 234 363 278 286 327 252 c 1
 371 272 431 285 555 306 c 1
 555 218 l 1
 391 188 331 152 290 122 c 0
 201 57 155 -27 155 -104 c 0
 155 -210 244 -301 431 -301 c 0
 495 -301 572 -290 662 -264 c 1
 686 -360 l 1
EndSplineSet
Colour: ffda6b
EndChar

StartChar: _.ein.fina
Encoding: 65561 -1 25
GlifName: _.ein.fina
Width: 695
VWidth: 1304
GlyphClass: 1
UnlinkRmOvrlpSave: 1
Flags: HMW
LayerCount: 2
Fore
SplineSet
685 -360 m 1
 580 -388 496 -400 415 -400 c 0
 177 -400 64 -267 64 -114 c 0
 64 9 138 144 280 232 c 1
 264 274 233 300 177 300 c 0
 164 300 148 298 131 295 c 1
 104 389 l 1
 191 439 280 460 354 460 c 0
 454 460 524 424 524 362 c 0
 524 301 480 244 416 198 c 1
 466 148 534 100 624 100 c 2
 695 100 l 1
 695 -0 l 1
 609 -0 l 2
 477 0 386 73 331 146 c 1
 319 140 l 1
 211 73 155 -21 155 -105 c 0
 155 -211 244 -301 431 -301 c 0
 495 -301 572 -290 662 -264 c 1
 685 -360 l 1
EndSplineSet
Colour: ffda6b
EndChar

StartChar: _.ein.medi
Encoding: 65562 -1 26
GlifName: _.ein.medi
Width: 573
VWidth: 1304
GlyphClass: 1
UnlinkRmOvrlpSave: 1
Flags: HMW
LayerCount: 2
Fore
SplineSet
228 162 m 1
 214 205 181 231 125 231 c 0
 112 231 96 229 79 226 c 1
 52 320 l 1
 139 370 230 391 304 391 c 0
 402 391 472 355 472 300 c 0
 472 258 428 200 364 146 c 1
 408 119 466 100 552 100 c 2
 573 100 l 1
 573 -0 l 1
 537 -0 l 2
 410 0 329 37 280 86 c 1
 200 37 107 0 28 -0 c 2
 -3 -0 l 1
 -26 1 -50 23 -50 48 c 0
 -50 74 -28 99 -3 100 c 0
 65 100 174 121 228 162 c 1
EndSplineSet
Colour: ffda6b
EndChar

StartChar: _.ein.init
Encoding: 65563 -1 27
GlifName: _.ein.init
Width: 545
VWidth: 1304
GlyphClass: 1
UnlinkRmOvrlpSave: 1
Flags: HMW
LayerCount: 2
Fore
SplineSet
-50 50 m 0
 -49 76 -25 100 0 100 c 0
 53 100 99 103 138 109 c 1
 97 158 73 214 64 267 c 0
 62 281 61 295 61 308 c 0
 61 440 178 503 314 503 c 0
 353 503 395 498 435 487 c 1
 413 394 l 1
 386 399 360 401 336 401 c 0
 239 401 171 366 161 330 c 0
 160 325 160 320 160 315 c 0
 160 249 208 168 261 138 c 1
 329 156 394 177 481 188 c 1
 481 100 l 1
 347 78 239 0 -2 -0 c 0
 -27 1 -50 24 -50 50 c 0
EndSplineSet
Colour: ffda6b
EndChar

StartChar: _.feh.isol
Encoding: 65564 -1 28
GlifName: _.feh.isol
Width: 927
VWidth: 1304
GlyphClass: 1
UnlinkRmOvrlpSave: 1
Flags: HMW
LayerCount: 2
Fore
SplineSet
64 189 m 0
 64 238 78 298 106 374 c 1
 188 349 l 1
 165 294 152 249 152 214 c 0
 152 131 225 100 416 100 c 0
 580 100 772 118 772 207 c 0
 772 210 772 213 772 216 c 1
 742 207 703 200 665 200 c 0
 663 200 661 200 659 200 c 0
 580 200 484 229 484 340 c 0
 489 498 573 599 667 599 c 0
 782 599 863 484 863 193 c 0
 863 189 863 184 863 180 c 0
 861 30 620 0 413 -0 c 0
 405 0 398 0 390 -0 c 0
 193 0 64 36 64 189 c 0
575 354 m 0
 575 313 625 300 663 300 c 0
 665 300 667 300 669 300 c 0
 702 300 739 309 767 316 c 1
 750 445 707 501 665 501 c 0
 631 501 575 446 575 354 c 0
EndSplineSet
Colour: ffda6b
EndChar

StartChar: _.feh.fina
Encoding: 65565 -1 29
GlifName: _.feh.fina
Width: 1078
VWidth: 1304
GlyphClass: 1
UnlinkRmOvrlpSave: 1
Flags: HMW
LayerCount: 2
Fore
SplineSet
64 189 m 0
 64 238 78 298 106 374 c 1
 188 349 l 1
 165 294 152 249 152 214 c 0
 152 131 225 100 416 100 c 0
 496 100 582 104 650 119 c 1
 608 153 583 194 583 240 c 0
 583 380 683 516 784 516 c 0
 891 516 967 369 967 287 c 0
 967 284 968 281 968 278 c 0
 968 221 932 168 878 123 c 1
 930 108 989 100 1052 100 c 2
 1078 100 l 1
 1078 -0 l 1
 1040 -0 l 2
 945 0 845 19 764 52 c 1
 674 11 537 0 413 -0 c 0
 405 0 398 0 390 -0 c 0
 193 0 64 36 64 189 c 0
676 265 m 0
 676 230 710 195 768 165 c 1
 833 201 875 241 880 261 c 1
 866 326 827 400 783 400 c 0
 739 400 676 332 676 265 c 0
EndSplineSet
Colour: ffda6b
EndChar

StartChar: _.feh.medi
Encoding: 65566 -1 30
GlifName: _.feh.medi
Width: 605
VWidth: 1304
GlyphClass: 1
UnlinkRmOvrlpSave: 1
Flags: HMW
LayerCount: 2
Fore
SplineSet
-50 50 m 0
 -50 75 -26 100 -1 100 c 2
 41 100 l 2
 85 100 128 107 167 118 c 1
 126 152 100 194 100 240 c 0
 100 380 199 516 300 516 c 0
 408 516 484 369 483 287 c 0
 483 283 484 280 484 276 c 0
 484 220 449 166 396 122 c 1
 448 108 506 100 569 100 c 2
 605 100 l 1
 605 -0 l 1
 557 -0 l 2
 461 0 362 19 281 52 c 1
 208 20 126 0 53 -0 c 2
 -1 -0 l 1
 -26 1 -50 24 -50 50 c 0
191 264 m 0
 191 229 226 195 284 165 c 1
 349 201 392 241 396 261 c 1
 384 326 342 400 298 400 c 0
 256 400 191 331 191 264 c 0
EndSplineSet
Colour: ffda6b
EndChar

StartChar: _.feh.init
Encoding: 65567 -1 31
GlifName: _.feh.init
Width: 495
VWidth: 1304
GlyphClass: 1
UnlinkRmOvrlpSave: 1
Flags: HMW
LayerCount: 2
Fore
SplineSet
-50 49 m 0
 -50 76 -27 100 -1 100 c 2
 232 100 l 2
 281 100 342 124 342 177 c 2
 342 216 l 1
 312 209 272 200 233 200 c 0
 231 200 230 200 228 200 c 0
 149 200 52 229 52 340 c 0
 57 498 142 599 236 599 c 0
 351 599 431 484 431 193 c 0
 431 189 431 184 431 180 c 0
 431 56 353 0 232 -0 c 2
 -1 -0 l 2
 -25 0 -50 24 -50 49 c 0
143 354 m 0
 143 313 194 300 232 300 c 0
 234 300 236 300 238 300 c 0
 271 300 307 309 335 316 c 1
 318 445 275 501 233 501 c 0
 199 501 143 446 143 354 c 0
EndSplineSet
Colour: ffda6b
EndChar

StartChar: _.qaf.isol
Encoding: 65568 -1 32
GlifName: _.qaf.isol
Width: 845
VWidth: 1304
GlyphClass: 1
UnlinkRmOvrlpSave: 1
Flags: HMW
LayerCount: 2
Fore
SplineSet
781 -15 m 0
 781 -192 555 -300 360 -300 c 0
 204 -300 64 -231 64 -68 c 0
 64 5 92 97 160 210 c 1
 223 170 l 1
 176 82 156 13 156 -41 c 0
 156 -157 248 -200 356 -200 c 0
 507 -200 688 -115 690 -22 c 1
 690 17 l 1
 659 9 617 1 576 1 c 0
 498 1 421 29 421 140 c 0
 421 274 504 364 590 364 c 0
 683 364 781 257 781 -15 c 0
512 153 m 0
 512 112 545 100 584 100 c 0
 615 100 650 107 677 114 c 1
 656 214 615 255 579 255 c 0
 543 255 512 214 512 153 c 0
EndSplineSet
Colour: ffda6b
EndChar

StartChar: _.qaf.fina
Encoding: 65569 -1 33
GlifName: _.qaf.fina
Width: 879
VWidth: 1304
GlyphClass: 1
UnlinkRmOvrlpSave: 1
Flags: HMW
LayerCount: 2
Fore
SplineSet
64 -68 m 0
 64 5 92 97 160 210 c 1
 223 170 l 1
 176 82 156 13 156 -41 c 0
 156 -157 248 -200 356 -200 c 0
 507 -200 689 -115 691 -22 c 1
 691 -0 l 1
 571 -0 l 1
 493 1 402 32 402 140 c 0
 406 298 490 400 585 400 c 0
 683 400 758 313 776 100 c 1
 879 100 l 1
 879 -0 l 1
 781 -0 l 1
 781 -20 l 1
 776 -192 555 -300 360 -300 c 0
 204 -300 64 -231 64 -68 c 0
491 157 m 1
 490 114 541 101 580 100 c 1
 686 100 l 1
 671 240 625 301 582 301 c 0
 542 301 502 248 491 157 c 1
EndSplineSet
Colour: ffda6b
EndChar

StartChar: _.kaf.isol.fa
Encoding: 65570 -1 34
GlifName: _.kaf.isol.fa
Width: 1059
VWidth: 1304
GlyphClass: 1
UnlinkRmOvrlpSave: 1
Flags: HMW
LayerCount: 2
Fore
SplineSet
863 190 m 0
 863 -5 550 0 390 -0 c 0
 193 0 64 36 64 189 c 0
 64 238 78 298 106 374 c 1
 182 340 l 1
 160 286 148 244 148 210 c 0
 148 128 222 100 416 100 c 0
 631 100 772 113 772 190 c 0
 772 194 771 199 770 204 c 0
 745 336 540 458 508 479 c 1
 525 577 529 591 567 618 c 0
 665 683 823 758 956 800 c 1
 995 708 l 1
 867 669 723 603 607 533 c 1
 687 480 816 387 853 255 c 0
 860 231 863 209 863 190 c 0
EndSplineSet
Colour: ffda6b
EndChar

StartChar: _.kaf.isol.ar
Encoding: 65571 -1 35
GlifName: _.kaf.isol.ar
Width: 929
VWidth: 1304
GlyphClass: 1
UnlinkRmOvrlpSave: 1
Flags: HMW
LayerCount: 2
Fore
SplineSet
64 217 m 0
 64 267 76 327 102 400 c 0
 104 406 113 409 118 407 c 2
 153 393 l 2
 158 391 163 384 159 373 c 0
 142 328 135 289 135 256 c 0
 135 138 238 100 369 100 c 0
 371 100 372 100 374 100 c 0
 540 100 682 134 792 172 c 1
 776 700 l 2
 776 707 776 713 776 718 c 0
 776 752 784 762 853 800 c 0
 860 800 865 798 865 789 c 2
 865 200 l 2
 865 121 853 99 753 65 c 0
 647 31 546 -1 358 -1 c 0
 199 -1 64 47 64 217 c 0
EndSplineSet
Colour: ffda6b
EndChar

StartChar: _.kaf.fina.fa
Encoding: 65572 -1 36
GlifName: _.kaf.fina.fa
Width: 1104
VWidth: 1304
GlyphClass: 1
UnlinkRmOvrlpSave: 1
Flags: HMW
LayerCount: 2
Fore
SplineSet
858 150 m 1
 816 -5 540 0 390 -0 c 0
 193 0 64 36 64 189 c 0
 64 238 78 298 106 374 c 1
 188 349 l 1
 165 294 152 249 152 214 c 0
 152 131 225 100 416 100 c 0
 631 100 772 113 772 190 c 0
 772 194 771 199 770 204 c 0
 759 261 717 312 678 351 c 0
 610 417 528 467 508 479 c 1
 525 577 529 591 567 618 c 0
 665 683 823 758 956 800 c 1
 995 708 l 1
 867 669 723 603 607 533 c 1
 649 505 707 465 756 413 c 0
 834 334 890 258 963 178 c 0
 1005 134 1049 100 1104 100 c 1
 1104 -0 l 1
 975 0 920 69 858 150 c 1
EndSplineSet
Colour: ffda6b
EndChar

StartChar: _.kaf.fina.ar
Encoding: 65573 -1 37
GlifName: _.kaf.fina.ar
Width: 885
VWidth: 1304
GlyphClass: 1
UnlinkRmOvrlpSave: 1
Flags: HMW
LayerCount: 2
Fore
SplineSet
64 28 m 1
 96 117 l 1
 146 95 219 82 315 82 c 0
 410 82 496 87 574 97 c 0
 627 104 652 141 652 209 c 2
 652 761 l 1
 734 761 l 1
 734 246 l 2
 734 175 747 123 799 109 c 0
 824 102 852 98 885 98 c 1
 885 -3 l 1
 811 -3 760 10 728 36 c 0
 723 40 714 48 700 64 c 1
 679 31 650 12 613 7 c 0
 516 -9 416 -17 311 -17 c 0
 208 -17 126 -2 64 28 c 1
EndSplineSet
Colour: ffda6b
EndChar

StartChar: _.kaf.medi
Encoding: 65574 -1 38
GlifName: _.kaf.medi
Width: 641
VWidth: 1304
GlyphClass: 1
UnlinkRmOvrlpSave: 1
Flags: HMW
LayerCount: 2
Fore
SplineSet
-50 50 m 0
 -50 76 -25 100 0 100 c 2
 147 100 l 2
 272 100 309 130 309 179 c 0
 309 246 258 308 213 352 c 0
 145 418 63 467 45 479 c 1
 62 577 66 591 104 618 c 0
 202 683 360 758 493 800 c 1
 531 708 l 1
 403 669 259 603 143 533 c 1
 182 507 237 468 282 423 c 0
 366 341 423 262 499 178 c 0
 541 134 586 100 641 100 c 1
 641 -0 l 1
 514 0 459 66 397 146 c 1
 380 59 293 0 163 -0 c 2
 0 -0 l 2
 -25 0 -50 24 -50 50 c 0
EndSplineSet
Colour: ffda6b
EndChar

StartChar: _.kaf.init
Encoding: 65575 -1 39
GlifName: _.kaf.init
Width: 595
VWidth: 1304
GlyphClass: 1
UnlinkRmOvrlpSave: 1
Flags: HMW
LayerCount: 2
Fore
SplineSet
-50 50 m 0
 -50 76 -25 100 0 100 c 2
 147 100 l 2
 271 100 309 130 309 178 c 0
 309 320 78 457 45 479 c 1
 62 577 66 591 104 618 c 0
 202 683 360 758 493 800 c 1
 531 708 l 1
 403 669 259 603 143 533 c 1
 237 470 401 352 401 180 c 0
 401 75 311 0 163 -0 c 2
 0 -0 l 2
 -25 0 -50 24 -50 50 c 0
EndSplineSet
Colour: ffda6b
EndChar

StartChar: _.kaf_hamze.isol.ar
Encoding: 65576 -1 40
GlifName: _.kaf_hamze.isol.ar
Width: 336
VWidth: 1304
GlyphClass: 1
UnlinkRmOvrlpSave: 1
Flags: HMW
LayerCount: 2
Fore
SplineSet
64 274 m 1
 64 343 l 1
 108 343 144 348 171 358 c 0
 197 367 210 376 210 385 c 0
 210 387 141 423 139 425 c 0
 121 435 102 463 102 493 c 0
 102 519 119 545 153 571 c 0
 186 597 225 610 272 610 c 1
 272 543 l 1
 224 543 189 531 166 509 c 0
 161 504 159 498 159 493 c 0
 159 487 167 480 183 473 c 0
 220 455 267 435 267 386 c 0
 267 363 251 341 218 319 c 0
 185 297 144 283 95 278 c 0
 78 276 68 274 64 274 c 1
EndSplineSet
Colour: ffda6b
EndChar

StartChar: _.ghaf.isol
Encoding: 65577 -1 41
GlifName: _.ghaf.isol
Width: 1059
VWidth: 0
GlyphClass: 1
UnlinkRmOvrlpSave: 1
Flags: HMW
LayerCount: 2
Fore
SplineSet
863 190 m 0
 863 -5 550 0 390 -0 c 0
 193 0 64 36 64 189 c 0
 64 238 78 298 106 374 c 1
 188 349 l 1
 165 294 152 249 152 214 c 0
 152 131 225 100 416 100 c 0
 631 100 772 113 772 190 c 0
 772 194 771 199 770 204 c 0
 745 336 540 458 508 479 c 1
 525 577 529 591 567 618 c 0
 665 683 823 758 956 800 c 1
 995 708 l 1
 867 669 723 603 607 533 c 1
 687 480 816 387 853 255 c 0
 860 231 863 209 863 190 c 0
528 706 m 1
 642 780 728 825 871 874 c 1
 894 820 l 1
 767 777 671 730 555 655 c 1
 528 706 l 1
EndSplineSet
Colour: ffda6b
EndChar

StartChar: _.ghaf.fina
Encoding: 65578 -1 42
GlifName: _.ghaf.fina
Width: 1104
VWidth: 0
GlyphClass: 1
Flags: HMW
LayerCount: 2
Fore
SplineSet
858 150 m 1
 816 -5 540 0 390 -0 c 0
 193 0 64 36 64 189 c 0
 64 238 78 298 106 374 c 1
 188 349 l 1
 165 294 152 249 152 214 c 0
 152 131 225 100 416 100 c 0
 631 100 772 113 772 190 c 0
 772 194 771 199 770 204 c 0
 759 261 717 312 678 351 c 0
 610 417 528 467 508 479 c 1
 525 577 529 591 567 618 c 0
 665 683 823 758 956 800 c 1
 995 708 l 1
 867 669 723 603 607 533 c 1
 649 505 707 465 756 413 c 0
 834 334 890 258 963 178 c 0
 1005 134 1049 100 1104 100 c 1
 1104 -0 l 1
 975 0 920 69 858 150 c 1
528 706 m 1
 642 780 728 825 871 874 c 1
 894 820 l 1
 767 777 671 730 555 655 c 1
 528 706 l 1
EndSplineSet
Colour: ffda6b
EndChar

StartChar: _.lam.isol
Encoding: 65580 -1 44
GlifName: _.lam.isol
Width: 844
VWidth: 1304
GlyphClass: 1
UnlinkRmOvrlpSave: 1
Flags: HMW
LayerCount: 2
Fore
SplineSet
64 -69 m 0
 64 4 93 97 161 210 c 1
 224 170 l 1
 176 82 156 12 156 -42 c 0
 156 -157 247 -200 354 -200 c 0
 505 -200 687 -114 689 -20 c 1
 689 800 l 1
 780 800 l 1
 780 -14 l 1
 778 -189 555 -300 358 -300 c 0
 203 -300 64 -231 64 -69 c 0
EndSplineSet
Colour: ffda6b
EndChar

StartChar: _.lam.fina
Encoding: 65581 -1 45
GlifName: _.lam.fina
Width: 923
VWidth: 1304
GlyphClass: 1
UnlinkRmOvrlpSave: 1
Flags: HMW
LayerCount: 2
Fore
SplineSet
64 -69 m 0
 64 4 93 97 161 210 c 1
 224 170 l 1
 176 82 156 12 156 -42 c 0
 156 -157 247 -200 354 -200 c 0
 505 -200 687 -114 689 -20 c 1
 689 800 l 1
 780 800 l 1
 780 184 l 2
 780 116 851 100 908 100 c 2
 923 100 l 1
 923 -0 l 1
 908 -0 l 2
 856 0 813 8 780 24 c 1
 780 11 780 -1 780 -14 c 0
 778 -189 555 -300 358 -300 c 0
 203 -300 64 -231 64 -69 c 0
EndSplineSet
Colour: ffda6b
EndChar

StartChar: _.lam.medi
Encoding: 65582 -1 46
GlifName: _.lam.medi
Width: 403
VWidth: 1304
GlyphClass: 1
UnlinkRmOvrlpSave: 1
Flags: HMW
LayerCount: 2
Fore
SplineSet
216 56 m 1
 178 18 121 0 42 -0 c 2
 0 -0 l 2
 -26 0 -50 24 -50 50 c 0
 -50 76 -26 100 0 100 c 2
 42 100 l 2
 99 100 170 116 170 184 c 2
 170 800 l 1
 260 800 l 1
 260 184 l 2
 260 116 331 100 388 100 c 2
 403 100 l 1
 403 -0 l 1
 388 -0 l 2
 309 0 253 18 216 55 c 1
 216 56 l 1
EndSplineSet
Colour: ffda6b
EndChar

StartChar: _.lam.init
Encoding: 65583 -1 47
GlifName: _.lam.init
Width: 324
VWidth: 1304
GlyphClass: 1
UnlinkRmOvrlpSave: 1
Flags: HMW
LayerCount: 2
Fore
SplineSet
-50 50 m 0
 -50 75 -26 100 -1 100 c 2
 42 100 l 2
 97 100 170 111 170 193 c 2
 170 800 l 1
 260 800 l 1
 260 194 l 2
 260 89 211 0 51 -0 c 2
 -1 -0 l 1
 -26 1 -50 24 -50 50 c 0
EndSplineSet
Colour: ffda6b
EndChar

StartChar: _.mim.isol
Encoding: 65584 -1 48
GlifName: _.mim.isol
Width: 734
VWidth: 1304
GlyphClass: 1
UnlinkRmOvrlpSave: 1
Flags: HMW
LayerCount: 2
Fore
SplineSet
64 157 m 0
 64 306 171 356 265 356 c 2
 540 356 l 1
 643 173 l 2
 661 141 670 115 670 93 c 0
 670 61 653 36 624 12 c 0
 564 -37 506 -58 457 -58 c 0
 363 -58 299 17 299 106 c 0
 299 155 318 208 363 256 c 1
 265 256 l 2
 180 256 163 205 163 165 c 0
 163 162 163 159 163 156 c 2
 199 -387 l 1
 100 -397 l 1
 65 135 l 2
 64 143 64 150 64 157 c 0
403 119 m 0
 403 79 442 54 484 54 c 0
 517 54 552 69 572 103 c 1
 542 144 517 193 491 237 c 1
 427 190 403 150 403 119 c 0
EndSplineSet
Colour: ffda6b
EndChar

StartChar: _.mim.fina
Encoding: 65585 -1 49
GlifName: _.mim.fina
Width: 776
VWidth: 1304
GlyphClass: 1
UnlinkRmOvrlpSave: 1
Flags: HMW
LayerCount: 2
Fore
SplineSet
64 157 m 0
 64 300 163 356 254 356 c 0
 258 356 261 356 265 356 c 2
 382 349 l 1
 358 393 l 1
 438 450 l 1
 589 196 l 2
 639 110 685 100 776 100 c 1
 776 -0 l 1
 700 0 643 4 594 36 c 1
 539 -35 477 -65 421 -65 c 0
 331 -65 258 9 258 102 c 0
 258 150 278 202 325 252 c 1
 265 256 l 2
 262 256 259 256 256 256 c 0
 179 256 163 204 163 165 c 0
 163 162 163 159 163 156 c 2
 199 -387 l 1
 102 -397 l 1
 65 135 l 2
 64 143 64 150 64 157 c 0
367 112 m 0
 367 70 403 43 443 43 c 0
 474 43 507 59 529 97 c 1
 535 97 l 1
 528 108 519 118 510 132 c 2
 451 232 l 1
 390 187 367 145 367 112 c 0
EndSplineSet
Colour: ffda6b
EndChar

StartChar: _.mim.medi
Encoding: 65586 -1 50
GlifName: _.mim.medi
Width: 717
VWidth: 1304
GlyphClass: 1
UnlinkRmOvrlpSave: 1
Flags: HMW
LayerCount: 2
Fore
SplineSet
-50 50 m 0
 -49 75 -27 99 -2 100 c 1
 16 100 l 2
 146 100 182 185 218 263 c 0
 258 351 311 387 362 387 c 0
 450 387 535 284 556 172 c 1
 573 115 628 100 681 100 c 2
 717 100 l 1
 717 -0 l 1
 681 -0 l 2
 623 0 576 10 542 31 c 1
 520 -6 483 -20 438 -20 c 0
 358 -20 257 22 184 48 c 1
 148 18 99 0 23 -0 c 2
 0 -0 l 1
 -25 1 -50 24 -50 50 c 0
247 128 m 1
 301 108 375 79 422 79 c 0
 450 79 468 89 468 117 c 0
 468 157 410 282 355 283 c 0
 338 283 318 258 301 226 c 0
 281 190 264 157 247 128 c 1
EndSplineSet
Colour: ffda6b
EndChar

StartChar: _.mim.init
Encoding: 65587 -1 51
GlifName: _.mim.init
Width: 626
VWidth: 1304
GlyphClass: 1
UnlinkRmOvrlpSave: 1
Flags: HMW
LayerCount: 2
Fore
SplineSet
-50 49 m 0
 -50 76 -27 100 -1 100 c 2
 18 100 l 2
 148 100 184 185 220 263 c 0
 260 351 312 387 363 387 c 0
 464 387 562 251 562 121 c 0
 562 14 510 -20 439 -20 c 0
 359 -20 258 23 185 48 c 1
 149 18 100 0 24 -0 c 2
 -1 -0 l 2
 -25 0 -50 24 -50 49 c 0
249 128 m 1
 303 108 376 79 423 79 c 0
 451 79 470 89 470 117 c 0
 470 157 411 282 356 283 c 0
 339 283 319 258 302 226 c 0
 282 190 266 157 249 128 c 1
EndSplineSet
Colour: ffda6b
EndChar

StartChar: _.nun.isol
Encoding: 65588 -1 52
GlifName: _.nun.isol
Width: 844
VWidth: 1305
GlyphClass: 1
UnlinkRmOvrlpSave: 1
Flags: HMW
LayerCount: 2
Fore
SplineSet
64 -68 m 0
 64 5 92 97 160 210 c 1
 223 170 l 1
 176 83 156 14 156 -40 c 0
 156 -156 248 -200 356 -200 c 0
 507 -200 689 -114 689 -21 c 0
 689 -18 689 -14 689 -11 c 0
 683 38 645 117 580 225 c 1
 666 289 l 1
 740 160 776 68 780 -0 c 0
 780 -5 780 -9 780 -14 c 0
 780 -189 557 -301 360 -301 c 0
 204 -301 64 -231 64 -68 c 0
EndSplineSet
Colour: ffda6b
EndChar

StartChar: _.nun.fina
Encoding: 65589 -1 53
GlifName: _.nun.fina
Width: 922
VWidth: 1413
GlyphClass: 1
UnlinkRmOvrlpSave: 1
Flags: HMW
LayerCount: 2
Fore
SplineSet
64 -68 m 0
 64 5 92 97 160 210 c 1
 223 170 l 1
 176 83 156 14 156 -40 c 0
 156 -156 248 -200 356 -200 c 0
 507 -200 689 -114 689 -21 c 0
 689 -18 689 -14 689 -11 c 0
 683 38 645 117 580 225 c 1
 666 289 l 1
 672 277 679 266 685 256 c 0
 733 188 783 100 922 100 c 1
 922 -0 l 1
 858 0 809 9 776 29 c 1
 778 19 780 10 780 -0 c 0
 780 -5 780 -9 780 -14 c 0
 780 -189 557 -301 360 -301 c 0
 204 -301 64 -231 64 -68 c 0
EndSplineSet
Colour: ffda6b
EndChar

StartChar: _.vav.isol
Encoding: 65590 -1 54
GlifName: _.vav.isol
Width: 555
VWidth: 1304
GlyphClass: 1
UnlinkRmOvrlpSave: 1
Flags: HMW
LayerCount: 2
Fore
SplineSet
64 -244 m 1
 199 -208 382 -105 398 23 c 1
 367 11 321 0 275 -0 c 0
 274 0 271 0 270 -0 c 0
 194 0 104 32 104 133 c 0
 104 140 105 148 106 156 c 0
 121 313 204 400 290 400 c 0
 388 400 488 287 491 40 c 1
 489 -132 312 -278 87 -340 c 1
 64 -244 l 1
187 154 m 1
 185 116 245 101 289 101 c 0
 291 101 293 101 295 101 c 0
 336 101 381 113 396 128 c 1
 381 238 333 299 286 299 c 0
 245 299 204 253 187 154 c 1
EndSplineSet
Colour: ffda6b
EndChar

StartChar: _.vav.fina
Encoding: 65591 -1 55
GlifName: _.vav.fina
Width: 588
VWidth: 1304
GlyphClass: 1
UnlinkRmOvrlpSave: 1
Flags: HMW
LayerCount: 2
Fore
SplineSet
64 -244 m 1
 191 -211 359 -118 393 -0 c 1
 273 -0 l 2
 197 0 104 30 104 133 c 0
 104 140 105 148 106 156 c 0
 121 314 204 400 290 400 c 0
 380 400 472 306 489 100 c 1
 588 100 l 1
 588 -0 l 1
 485 -0 l 1
 458 -154 294 -283 87 -340 c 1
 64 -244 l 1
187 154 m 1
 185 116 245 101 289 101 c 2
 400 101 l 1
 389 228 336 299 285 299 c 0
 244 299 204 253 187 154 c 1
EndSplineSet
Colour: ffda6b
EndChar

StartChar: _.dal.isol
Encoding: 65592 -1 56
GlifName: _.dal.isol
Width: 586
VWidth: 1304
GlyphClass: 1
UnlinkRmOvrlpSave: 1
Flags: HMW
LayerCount: 2
Fore
SplineSet
64 54 m 1
 105 145 l 1
 149 119 210 103 269 103 c 0
 331 103 392 121 432 167 c 1
 425 248 369 344 266 457 c 1
 339 523 l 1
 407 452 522 310 522 162 c 0
 522 136 499 106 487 88 c 1
 422 24 346 0 270 0 c 0
 198 0 126 22 64 54 c 1
EndSplineSet
Colour: ffda6b
EndChar

StartChar: _.dal.fina
Encoding: 65593 -1 57
GlifName: _.dal.fina
Width: 683
VWidth: 1304
GlyphClass: 1
UnlinkRmOvrlpSave: 1
Flags: HMW
LayerCount: 2
Fore
SplineSet
64 54 m 1
 105 145 l 1
 150 119 211 103 270 103 c 0
 333 103 395 121 435 168 c 1
 324 460 l 1
 406 518 l 1
 516 223 l 2
 550 129 566 100 683 100 c 1
 683 -0 l 1
 589 0 523 15 476 79 c 1
 414 23 342 0 270 0 c 0
 198 0 126 22 64 54 c 1
EndSplineSet
Colour: ffda6b
EndChar

StartChar: _.ree.isol
Encoding: 65594 -1 58
GlifName: _.ree.isol
Width: 526
VWidth: 1304
GlyphClass: 1
UnlinkRmOvrlpSave: 1
Flags: HMW
LayerCount: 2
Fore
SplineSet
64 -234 m 1
 199 -187 361 -77 363 34 c 0
 363 76 360 149 294 257 c 1
 373 319 l 1
 448 190 462 112 462 44 c 0
 462 -121 305 -263 96 -329 c 1
 64 -234 l 1
EndSplineSet
Colour: ffda6b
EndChar

StartChar: _.ree.fina
Encoding: 65595 -1 59
GlifName: _.ree.fina
Width: 608
VWidth: 1304
GlyphClass: 1
UnlinkRmOvrlpSave: 1
Flags: HMW
LayerCount: 2
Fore
SplineSet
373 319 m 1
 432 224 444 100 608 100 c 1
 608 -0 l 1
 529 0 490 15 462 43 c 1
 462 -121 305 -263 96 -329 c 1
 64 -234 l 1
 199 -187 361 -77 363 34 c 0
 363 76 360 149 294 257 c 1
 373 319 l 1
EndSplineSet
Colour: ffda6b
EndChar

StartChar: _.he8.isol
Encoding: 65596 -1 60
GlifName: _.he8.isol
Width: 516
VWidth: 1304
GlyphClass: 1
UnlinkRmOvrlpSave: 1
Flags: HMW
LayerCount: 2
Fore
SplineSet
64 164 m 0
 64 233 96 320 170 417 c 1
 157 428 143 438 129 450 c 1
 202 527 l 1
 387 381 452 260 452 172 c 0
 452 61 349 0 250 -0 c 0
 136 0 64 62 64 164 c 0
159 172 m 0
 159 126 189 100 250 100 c 0
 299 100 359 117 359 172 c 0
 359 211 328 270 239 355 c 1
 186 280 159 217 159 172 c 0
EndSplineSet
Colour: ffda6b
EndChar

StartChar: _.he8.fina
Encoding: 65597 -1 61
GlifName: _.he8.fina
Width: 558
VWidth: 1304
GlyphClass: 1
UnlinkRmOvrlpSave: 1
Flags: HMW
LayerCount: 2
Fore
SplineSet
64 204 m 0
 64 281 138 381 271 457 c 1
 255 524 l 1
 338 567 l 1
 427 187 l 1
 438 132 460 103 512 101 c 0
 522 100 538 100 558 100 c 1
 558 -0 l 2
 558 -1 549 -2 536 -2 c 0
 495 -2 403 12 358 100 c 1
 315 92 277 88 244 88 c 0
 120 88 64 137 64 204 c 0
154 224 m 0
 154 200 184 186 239 186 c 0
 265 186 296 190 332 196 c 1
 294 354 l 1
 199 298 154 253 154 224 c 0
EndSplineSet
Colour: ffda6b
EndChar

StartChar: _.he8.medi
Encoding: 65598 -1 62
GlifName: _.he8.medi
Width: 574
VWidth: 1304
GlyphClass: 1
UnlinkRmOvrlpSave: 1
Flags: HMW
LayerCount: 2
Fore
SplineSet
-50 50 m 0
 -50 76 -26 100 0 100 c 2
 60 100 l 2
 66 100 71 100 77 100 c 1
 76 111 76 122 76 133 c 0
 76 313 180 477 255 477 c 0
 316 477 409 361 409 249 c 0
 409 211 398 173 371 140 c 0
 326 85 265 40 191 17 c 1
 224 -54 291 -103 370 -143 c 1
 351 -127 321 -65 321 -8 c 0
 321 48 350 100 447 100 c 2
 574 100 l 1
 574 -0 l 1
 500 -0 l 2
 433 0 411 -18 411 -45 c 0
 411 -85 464 -146 500 -197 c 1
 474 -291 l 1
 248 -241 139 -126 97 -0 c 1
 0 -0 l 2
 -26 0 -50 24 -50 50 c 0
166 155 m 0
 166 142 167 128 168 114 c 1
 235 134 277 172 309 202 c 0
 320 212 325 225 325 239 c 0
 325 290 267 357 249 362 c 1
 204 336 166 258 166 155 c 0
EndSplineSet
Colour: ffda6b
EndChar

StartChar: _.he8.init
Encoding: 65599 -1 63
GlifName: _.he8.init
Width: 714
VWidth: 1304
GlyphClass: 1
UnlinkRmOvrlpSave: 1
Flags: HMW
LayerCount: 2
Fore
SplineSet
-50 49 m 0
 -50 76 -27 100 -1 100 c 2
 100 100 l 2
 123 100 149 103 172 109 c 1
 123 145 90 191 90 248 c 0
 90 269 94 291 104 315 c 0
 123 363 164 414 211 445 c 1
 197 451 184 456 175 460 c 1
 206 554 l 1
 362 489 650 368 650 180 c 0
 650 130 629 75 580 15 c 0
 573 6 550 1 517 1 c 0
 458 1 368 16 285 48 c 1
 237 17 181 0 127 -0 c 2
 -1 -0 l 2
 -25 0 -50 24 -50 49 c 0
278 161 m 1
 310 189 336 223 336 274 c 0
 336 344 311 372 279 372 c 0
 243 372 198 334 178 278 c 0
 176 272 175 267 175 261 c 0
 175 223 220 189 278 161 c 1
423 294 m 0
 423 225 397 169 367 128 c 1
 420 112 471 102 503 102 c 0
 519 102 531 104 535 109 c 0
 553 129 560 151 560 171 c 0
 560 229 497 287 420 336 c 1
 422 322 423 308 423 294 c 0
EndSplineSet
Colour: ffda6b
EndChar

StartChar: _.yeh.fina
Encoding: 65600 -1 64
GlifName: _.yeh.fina
Width: 865
VWidth: 1304
GlyphClass: 1
UnlinkRmOvrlpSave: 1
Flags: HMW
LayerCount: 2
Fore
SplineSet
64 -68 m 0
 64 5 93 97 161 210 c 1
 223 170 l 1
 176 83 157 13 157 -41 c 0
 157 -157 249 -200 357 -200 c 0
 477 -200 615 -147 668 -78 c 0
 673 -71 675 -64 675 -56 c 0
 675 -25 634 11 545 38 c 1
 575 140 l 1
 672 115 775 100 865 100 c 1
 865 -0 l 1
 811 0 761 3 738 13 c 1
 759 -6 773 -36 773 -64 c 0
 773 -66 772 -68 772 -70 c 0
 730 -213 535 -301 360 -301 c 0
 204 -301 64 -231 64 -68 c 0
EndSplineSet
Colour: ffda6b
EndChar

StartChar: _.yeh.isol
Encoding: 65601 -1 65
GlifName: _.yeh.isol
Width: 924
VWidth: 1304
GlyphClass: 1
UnlinkRmOvrlpSave: 1
Flags: HMW
LayerCount: 2
Fore
SplineSet
64 -68 m 0
 64 5 92 97 160 210 c 1
 223 170 l 1
 176 82 156 13 156 -41 c 0
 156 -157 248 -200 356 -200 c 0
 479 -200 623 -144 673 -72 c 0
 676 -67 677 -61 677 -56 c 0
 677 -13 567 14 500 43 c 0
 456 61 434 99 434 142 c 0
 434 177 448 215 474 250 c 0
 538 335 617 402 694 402 c 0
 753 402 811 363 860 263 c 1
 792 208 l 1
 758 255 728 278 693 278 c 0
 659 278 622 256 573 213 c 0
 551 194 541 169 541 153 c 0
 541 146 543 141 547 139 c 0
 610 107 780 74 780 -34 c 0
 780 -64 767 -99 735 -142 c 0
 735 -143 734 -143 734 -144 c 0
 658 -242 502 -301 360 -301 c 0
 204 -301 64 -231 64 -68 c 0
EndSplineSet
Colour: ffda6b
EndChar

StartChar: _.hamze.isol
Encoding: 65602 -1 66
GlifName: _.hamze.isol
Width: 459
VWidth: 1304
GlyphClass: 2
Flags: HMW
LayerCount: 2
Fore
SplineSet
174 230 m 0
 174 210 198 170 220 170 c 0
 227 170 241 174 261 180 c 0
 281 187 320 194 380 204 c 1
 395 107 l 1
 322 93 284 86 278 84 c 0
 228 68 170 40 105 -1 c 1
 64 86 l 1
 103 109 127 123 134 127 c 1
 98 162 83 201 83 238 c 0
 83 316 149 384 232 384 c 0
 269 384 310 370 350 338 c 1
 297 263 l 1
 278 279 257 286 239 286 c 0
 203 286 174 261 174 230 c 0
EndSplineSet
Colour: ffda6b
EndChar

StartChar: _.keshide.medi
Encoding: 65603 -1 67
GlifName: _.keshide.medi
Width: 350
VWidth: 1304
GlyphClass: 2
Flags: HMW
LayerCount: 2
Fore
SplineSet
-50 -0 m 1
 -50 100 l 1
 350 100 l 1
 350 -0 l 1
 -50 -0 l 1
EndSplineSet
Colour: ffda6b
EndChar

StartChar: _.dot.1u
Encoding: 65604 -1 68
GlifName: _.dot.1u
Width: 0
VWidth: 1304
GlyphClass: 2
Flags: HMW
LayerCount: 2
Fore
SplineSet
0 82 m 1
 82 165 l 1
 166 82 l 1
 82 -0 l 1
 0 82 l 1
EndSplineSet
Colour: ffda6b
EndChar

StartChar: _.dot.2u
Encoding: 65605 -1 69
GlifName: _.dot.2u
Width: 0
VWidth: 1304
GlyphClass: 2
UnlinkRmOvrlpSave: 1
Flags: HMW
LayerCount: 2
Fore
SplineSet
0 81 m 1
 82 164 l 1
 165 81 l 1
 82 -1 l 1
 0 81 l 1
195 81 m 1
 277 164 l 1
 361 81 l 1
 277 -1 l 1
 195 81 l 1
EndSplineSet
Colour: ffda6b
EndChar

StartChar: _.dot.3u
Encoding: 65606 -1 70
GlifName: _.dot.3u
Width: 0
VWidth: 1304
GlyphClass: 2
UnlinkRmOvrlpSave: 1
Flags: HMW
LayerCount: 2
Fore
SplineSet
0 82 m 1
 82 165 l 1
 166 82 l 1
 82 -0 l 1
 0 82 l 1
100 223 m 1
 182 305 l 1
 266 223 l 1
 182 140 l 1
 100 223 l 1
195 82 m 1
 277 165 l 1
 361 82 l 1
 277 -0 l 1
 195 82 l 1
EndSplineSet
Colour: ffda6b
EndChar

StartChar: _.dot.1d
Encoding: 65607 -1 71
GlifName: _.dot.1d
Width: 0
VWidth: 1304
GlyphClass: 2
Flags: HMW
LayerCount: 2
Fore
SplineSet
0 -88 m 1
 82 -5 l 1
 166 -88 l 1
 82 -170 l 1
 0 -88 l 1
EndSplineSet
Colour: ffda6b
EndChar

StartChar: _.dot.2d
Encoding: 65608 -1 72
GlifName: _.dot.2d
Width: 0
VWidth: 1304
GlyphClass: 2
UnlinkRmOvrlpSave: 1
Flags: HMW
LayerCount: 2
Fore
SplineSet
0 -88 m 1
 82 -5 l 1
 165 -88 l 1
 82 -170 l 1
 0 -88 l 1
195 -88 m 1
 277 -5 l 1
 361 -88 l 1
 277 -170 l 1
 195 -88 l 1
EndSplineSet
Colour: ffda6b
EndChar

StartChar: _.dot.3d
Encoding: 65609 -1 73
GlifName: _.dot.3d
Width: 0
VWidth: 1304
GlyphClass: 2
UnlinkRmOvrlpSave: 1
Flags: HMW
LayerCount: 2
Fore
SplineSet
0 -88 m 1
 82 -5 l 1
 166 -88 l 1
 82 -170 l 1
 0 -88 l 1
100 -217 m 1
 182 -134 l 1
 266 -217 l 1
 182 -299 l 1
 100 -217 l 1
195 -88 m 1
 277 -5 l 1
 361 -88 l 1
 277 -170 l 1
 195 -88 l 1
EndSplineSet
Colour: ffda6b
EndChar

StartChar: _.num.0.fa
Encoding: 65611 -1 75
GlifName: _.num.0
Width: 438
VWidth: 1424
GlyphClass: 2
Flags: HMW
LayerCount: 2
Fore
SplineSet
75 305 m 0
 75 390 130 465 219 465 c 0
 303 465 363 394 363 314 c 0
 363 233 303 162 219 162 c 0
 140 162 75 225 75 305 c 0
131 310 m 0
 131 269 159 229 219 229 c 0
 220 229 l 0
 277 229 305 270 305 312 c 0
 305 354 276 396 219 396 c 0
 162 396 131 353 131 310 c 0
EndSplineSet
Colour: ffda6b
EndChar

StartChar: _.num.1
Encoding: 65612 -1 76
GlifName: _.num.1
Width: 448
VWidth: 1331
GlyphClass: 2
Flags: HMW
LayerCount: 2
Fore
SplineSet
75 732 m 1
 149 793 l 1
 299 580 373 312 373 -8 c 1
 283 -8 l 1
 277 303 208 550 75 732 c 1
EndSplineSet
Colour: ffda6b
EndChar

StartChar: _.num.2
Encoding: 65613 -1 77
GlifName: _.num.2
Width: 676
VWidth: 1331
GlyphClass: 2
Flags: HMW
LayerCount: 2
Fore
SplineSet
75 734 m 1
 150 799 l 1
 231 704 300 657 358 657 c 0
 424 657 474 707 507 805 c 1
 601 769 l 1
 546 618 465 543 363 543 c 0
 340 543 308 550 266 564 c 1
 344 413 383 224 383 -0 c 1
 289 -0 l 1
 289 262 218 506 75 734 c 1
EndSplineSet
Colour: ffda6b
EndChar

StartChar: _.num.3
Encoding: 65614 -1 78
GlifName: _.num.3
Width: 763
VWidth: 1331
GlyphClass: 2
Flags: HMW
LayerCount: 2
Fore
SplineSet
75 742 m 1
 149 806 l 1
 202 706 253 656 302 656 c 0
 349 656 373 705 373 802 c 1
 465 802 l 1
 472 712 493 667 528 667 c 0
 529 667 l 0
 571 667 593 711 595 801 c 1
 688 801 l 1
 688 636 635 554 529 554 c 0
 482 554 445 578 418 626 c 1
 398 577 365 553 321 553 c 0
 296 553 276 563 260 580 c 1
 331 413 367 219 367 -1 c 1
 273 -1 l 1
 273 211 207 458 75 742 c 1
EndSplineSet
Colour: ffda6b
EndChar

StartChar: _.num.4.fa
Encoding: 65615 -1 79
GlifName: _.num.4.fa
Width: 718
VWidth: 1331
GlyphClass: 2
Flags: HMW
LayerCount: 2
Fore
SplineSet
75 674 m 1
 150 742 l 1
 251 591 l 1
 266 579 292 571 329 569 c 1
 313 599 306 628 306 654 c 0
 306 743 386 803 471 803 c 0
 506 803 543 793 574 770 c 1
 570 674 l 1
 533 698 501 708 476 708 c 0
 428 708 404 673 404 638 c 0
 404 603 428 569 480 569 c 0
 512 569 556 584 615 615 c 1
 643 518 l 1
 569 483 498 461 423 461 c 0
 380 461 336 468 290 485 c 1
 354 327 386 164 386 -6 c 1
 292 -6 l 1
 292 208 220 435 75 674 c 1
EndSplineSet
Colour: ffda6b
EndChar

StartChar: _.num.4.ar
Encoding: 65616 -1 80
GlifName: _.num.4.ar
Width: 469
VWidth: 1331
GlyphClass: 2
Flags: HMW
LayerCount: 2
Fore
SplineSet
75 581 m 0
 75 682 246 767 331 800 c 1
 366 695 l 1
 335 684 167 605 167 580 c 0
 167 544 326 467 356 453 c 1
 252 349 173 282 173 230 c 0
 173 184 235 151 394 116 c 1
 380 4 l 1
 282 14 79 65 79 191 c 0
 79 257 119 335 199 422 c 1
 117 475 75 528 75 581 c 0
EndSplineSet
Colour: ffda6b
EndChar

StartChar: _.num.5.fa
Encoding: 65617 -1 81
GlifName: _.num.5.fa
Width: 672
VWidth: 1331
GlyphClass: 2
Flags: HMW
LayerCount: 2
Fore
SplineSet
75 153 m 0
 75 323 221 586 266 665 c 1
 224 705 l 1
 283 790 l 1
 457 636 597 463 597 219 c 0
 597 124 563 4 446 4 c 0
 399 4 361 22 335 63 c 1
 305 24 274 4 224 4 c 0
 113 4 75 66 75 153 c 0
169 180 m 0
 169 143 184 119 221 119 c 0
 281 119 290 194 296 241 c 1
 387 241 l 1
 391 204 394 119 446 119 c 0
 484 119 504 153 504 219 c 0
 504 365 435 484 340 591 c 1
 318 553 169 299 169 180 c 0
EndSplineSet
Colour: ffda6b
EndChar

StartChar: _.num.5.ar
Encoding: 65618 -1 82
GlifName: _.num.5.ar
Width: 699
VWidth: 1331
GlyphClass: 2
Flags: HMW
LayerCount: 2
Fore
SplineSet
75 289 m 0
 75 451 161 586 336 693 c 1
 341 693 l 1
 529 598 624 459 624 274 c 0
 624 88 530 -4 343 -4 c 0
 163 -4 75 94 75 289 c 0
178 289 m 0
 178 168 233 109 341 109 c 0
 462 109 522 169 522 288 c 0
 522 390 462 481 341 560 c 1
 233 468 178 378 178 289 c 0
EndSplineSet
Colour: ffda6b
EndChar

StartChar: _.num.6.fa
Encoding: 65619 -1 83
GlifName: _.num.6.fa
Width: 724
VWidth: 1331
GlyphClass: 2
Flags: HMW
LayerCount: 2
Fore
SplineSet
75 81 m 1
 204 251 286 352 322 384 c 1
 200 412 148 496 148 581 c 0
 148 692 236 805 374 805 c 0
 426 805 484 789 548 751 c 1
 513 645 l 1
 463 674 418 685 382 685 c 0
 307 685 265 636 265 586 c 0
 265 534 311 481 415 481 c 0
 449 481 515 502 613 546 c 1
 649 441 l 1
 473 368 311 222 165 -0 c 1
 75 81 l 1
EndSplineSet
Colour: ffda6b
EndChar

StartChar: _.num.6.ar
Encoding: 65620 -1 84
GlifName: _.num.6.ar
Width: 714
VWidth: 1331
GlyphClass: 2
Flags: HMW
LayerCount: 2
Fore
SplineSet
524 356 m 2
 524 244 566 151 639 111 c 1
 590 -0 l 1
 580 6 l 1
 536 31 499 75 468 140 c 0
 436 204 421 277 421 356 c 2
 421 445 l 2
 421 507 424 568 433 630 c 1
 374 618 315 612 257 612 c 0
 194 612 133 647 75 705 c 1
 145 799 l 1
 154 789 l 1
 191 755 228 737 265 737 c 0
 349 737 441 753 542 785 c 1
 559 791 l 1
 559 773 l 1
 538 636 524 523 524 434 c 2
 524 356 l 2
EndSplineSet
Colour: ffda6b
EndChar

StartChar: _.num.7
Encoding: 65621 -1 85
GlifName: _.num.7
Width: 784
VWidth: 1331
GlyphClass: 2
Flags: HMW
LayerCount: 2
Fore
SplineSet
75 736 m 1
 155 806 l 1
 277 616 357 391 393 221 c 1
 432 397 511 618 630 806 c 1
 709 735 l 1
 617 587 527 342 442 -0 c 1
 343 -0 l 1
 295 257 205 502 75 736 c 1
EndSplineSet
Colour: ffda6b
EndChar

StartChar: _.num.8
Encoding: 65622 -1 86
GlifName: _.num.8
Width: 784
VWidth: 1331
GlyphClass: 2
Flags: HMW
LayerCount: 2
Fore
SplineSet
75 70 m 1
 205 304 295 550 343 806 c 1
 442 806 l 1
 527 464 617 219 709 71 c 1
 630 -0 l 1
 511 188 432 409 393 585 c 1
 357 415 277 191 155 -0 c 1
 75 70 l 1
EndSplineSet
Colour: ffda6b
EndChar

StartChar: _.num.9
Encoding: 65623 -1 87
GlifName: _.num.9
Width: 667
VWidth: 1331
GlyphClass: 2
Flags: HMW
LayerCount: 2
Fore
SplineSet
75 575 m 0
 75 666 135 800 241 800 c 0
 385 800 450 631 450 509 c 0
 450 281 497 148 592 106 c 1
 550 5 l 1
 443 58 379 199 359 429 c 1
 323 415 284 409 238 409 c 0
 130 409 75 464 75 575 c 0
169 570 m 0
 169 538 194 522 246 522 c 0
 288 522 323 531 354 548 c 1
 345 610 307 687 245 687 c 0
 190 687 169 617 169 570 c 0
EndSplineSet
Colour: ffda6b
EndChar

StartChar: _.sing.backslash
Encoding: 65624 -1 88
GlifName: _.sing.backslash
Width: 430
VWidth: 1197
GlyphClass: 2
Flags: HMW
LayerCount: 2
Fore
SplineSet
50 799 m 1
 132 799 l 1
 380 -0 l 1
 297 -0 l 1
 50 799 l 1
EndSplineSet
Colour: ffda6b
EndChar

StartChar: _.sing.slash
Encoding: 65625 -1 89
GlifName: _.sing.slash
Width: 430
VWidth: 1197
GlyphClass: 2
Flags: HMW
LayerCount: 2
Fore
SplineSet
50 -0 m 1
 297 799 l 1
 380 799 l 1
 132 -0 l 1
 50 -0 l 1
EndSplineSet
Colour: ffda6b
EndChar

StartChar: _.sing.tajob
Encoding: 65626 -1 90
GlifName: _.sing.tajob
Width: 207
VWidth: 1197
GlyphClass: 2
Flags: HMW
LayerCount: 2
Fore
SplineSet
50 18 m 1
 50 151 l 1
 157 151 l 1
 157 18 l 1
 50 18 l 1
61 271 m 1
 61 800 l 1
 157 800 l 1
 157 271 l 1
 61 271 l 1
EndSplineSet
Colour: ffda6b
EndChar

StartChar: _.sing.soal
Encoding: 65627 -1 91
GlifName: _.sing.soal
Width: 429
VWidth: 1304
GlyphClass: 2
Flags: HMW
LayerCount: 2
Fore
SplineSet
50 624 m 0
 50 721 139 800 233 800 c 0
 279 800 327 791 379 774 c 1
 354 684 l 1
 329 693 298 697 268 697 c 0
 200 697 134 675 134 629 c 0
 134 545 332 465 332 354 c 0
 332 294 326 267 293 219 c 1
 211 234 l 1
 234 277 247 314 247 347 c 0
 247 423 50 469 50 624 c 0
264 -0 m 2
 225 0 199 28 199 65 c 0
 199 104 227 132 264 132 c 0
 301 132 331 103 331 66 c 0
 331 32 303 0 269 -0 c 2
 264 -0 l 2
EndSplineSet
Colour: ffda6b
EndChar

StartChar: _.sing.beezafeh
Encoding: 65628 -1 92
GlifName: _.sing.beezafeh
Width: 772
VWidth: 1352
GlyphClass: 2
Flags: HMW
LayerCount: 2
Fore
SplineSet
50 293 m 1
 50 380 l 1
 342 380 l 1
 342 672 l 1
 430 672 l 1
 430 380 l 1
 722 380 l 1
 722 293 l 1
 430 293 l 1
 430 -0 l 1
 342 -0 l 1
 342 293 l 1
 50 293 l 1
EndSplineSet
Colour: ffda6b
EndChar

StartChar: _.sing.menha
Encoding: 65629 -1 93
GlifName: _.sing.menha
Width: 500
VWidth: 0
GlyphClass: 2
Flags: HMW
LayerCount: 2
Fore
SplineSet
50 250 m 1
 50 351 l 1
 450 351 l 1
 450 250 l 1
 50 250 l 1
EndSplineSet
Colour: ffda6b
EndChar

StartChar: _.sing.khateh_tire
Encoding: 65630 -1 94
GlifName: _.sing.khateh_tire
Width: 200
VWidth: 0
GlyphClass: 2
Flags: HMW
LayerCount: 2
Fore
SplineSet
50 -100 m 1
 50 300 l 1
 150 300 l 1
 150 -100 l 1
 50 -100 l 1
50 401 m 1
 50 801 l 1
 150 801 l 1
 150 401 l 1
 50 401 l 1
EndSplineSet
Colour: ffda6b
EndChar

StartChar: _.sing.virgul
Encoding: 65631 -1 95
GlifName: _.sing.virgul
Width: 270
VWidth: 1197
GlyphClass: 2
Flags: HMW
LayerCount: 2
Fore
SplineSet
140 -1 m 0
 88 -1 50 49 50 112 c 0
 50 193 115 270 177 299 c 1
 220 276 l 1
 173 248 104 198 104 147 c 0
 104 141 105 134 107 128 c 1
 117 137 128 141 140 141 c 0
 187 141 213 104 213 61 c 0
 213 23 174 -1 140 -1 c 0
EndSplineSet
Colour: ffda6b
EndChar

StartChar: _.sing.dot_virgul
Encoding: 65632 -1 96
GlifName: _.sing.dot_virgul
Width: 270
VWidth: 1304
GlyphClass: 2
Flags: HMW
LayerCount: 2
Fore
SplineSet
140 267 m 0
 90 267 50 313 50 375 c 0
 50 448 93 512 177 567 c 1
 220 543 l 1
 178 518 148 496 131 475 c 0
 114 454 105 433 104 411 c 0
 104 410 105 407 105 402 c 0
 106 398 107 396 107 396 c 1
 117 405 128 409 140 409 c 0
 181 409 212 379 212 329 c 0
 212 294 176 267 140 267 c 0
140 1 m 2
 100 1 71 31 71 71 c 0
 71 110 101 141 140 141 c 0
 180 141 211 110 211 72 c 0
 211 33 182 1 144 1 c 2
 140 1 l 2
EndSplineSet
Colour: ffda6b
EndChar

StartChar: _.sing.2noqte
Encoding: 65633 -1 97
GlifName: _.sing.2noqte
Width: 240
VWidth: 1352
GlyphClass: 2
Flags: HMW
LayerCount: 2
Fore
SplineSet
120 -0 m 0
 81 0 50 31 50 70 c 0
 50 108 82 139 120 139 c 0
 159 139 190 108 190 70 c 0
 190 31 160 0 120 -0 c 0
120 289 m 0
 81 289 50 320 50 358 c 0
 50 396 83 428 120 428 c 0
 159 428 190 396 190 358 c 0
 190 319 159 289 120 289 c 0
EndSplineSet
Colour: ffda6b
EndChar

StartChar: _.sing.noqte
Encoding: 65634 -1 98
GlifName: _.sing.noqte
Width: 240
VWidth: 1352
GlyphClass: 2
Flags: HMW
LayerCount: 2
Fore
SplineSet
120 -0 m 0
 81 0 50 31 50 70 c 0
 50 108 81 139 120 139 c 0
 159 139 190 108 190 70 c 0
 190 31 160 0 120 -0 c 0
EndSplineSet
Colour: ffda6b
EndChar

StartChar: _.sing.gheiomeh.right
Encoding: 65635 -1 99
GlifName: _.sing.gheiomeh.right
Width: 574
VWidth: 1352
GlyphClass: 2
Flags: HMW
LayerCount: 2
Fore
SplineSet
50 218 m 1
 50 261 l 1
 296 480 l 1
 296 380 l 1
 139 239 l 1
 296 100 l 1
 296 -1 l 1
 50 218 l 1
278 218 m 1
 278 261 l 1
 524 480 l 1
 524 380 l 1
 366 239 l 1
 524 100 l 1
 524 -1 l 1
 278 218 l 1
EndSplineSet
Colour: ffda6b
EndChar

StartChar: _.sing.gheiomeh.left
Encoding: 65636 -1 100
GlifName: _.sing.gheiomeh.left
Width: 574
VWidth: 1352
GlyphClass: 2
Flags: HMW
LayerCount: 2
Fore
SplineSet
50 -1 m 1
 50 100 l 1
 209 239 l 1
 50 380 l 1
 50 480 l 1
 296 261 l 1
 296 218 l 1
 50 -1 l 1
278 -1 m 1
 278 100 l 1
 437 239 l 1
 278 380 l 1
 278 480 l 1
 524 261 l 1
 524 218 l 1
 278 -1 l 1
EndSplineSet
Colour: ffda6b
EndChar

StartChar: _.sing.parantez.right
Encoding: 65637 -1 101
GlifName: _.sing.parantez.right
Width: 326
VWidth: 1352
GlyphClass: 2
Flags: HMW
LayerCount: 2
Fore
SplineSet
50 348 m 0
 50 497 100 646 199 799 c 1
 276 799 l 1
 189 651 145 499 145 348 c 0
 145 197 189 44 276 -104 c 1
 199 -104 l 1
 100 49 50 199 50 348 c 0
EndSplineSet
Colour: ffda6b
EndChar

StartChar: _.sing.parantez.left
Encoding: 65638 -1 102
GlifName: _.sing.parantez.left
Width: 326
VWidth: 1352
GlyphClass: 2
Flags: HMW
LayerCount: 2
Fore
SplineSet
50 -104 m 1
 137 44 181 197 181 348 c 0
 181 499 137 651 50 799 c 1
 128 799 l 1
 227 646 276 497 276 348 c 0
 276 199 227 49 128 -104 c 1
 50 -104 l 1
EndSplineSet
Colour: ffda6b
EndChar

StartChar: _.sing.parantez_tazeeni.right
Encoding: 65639 -1 103
GlifName: _.sing.parantez_tazeeni.right
Width: 866
VWidth: 0
GlyphClass: 2
Flags: HMW
LayerCount: 2
Fore
SplineSet
50 -484 m 1
 173 -367 261 -238 315 -100 c 1
 192 -100 l 1
 192 55 l 1
 86 161 l 1
 192 267 l 1
 192 420 l 1
 315 420 l 1
 255 567 160 697 50 805 c 1
 184 805 l 1
 406 730 557 602 641 420 c 1
 711 420 l 1
 711 267 l 1
 816 161 l 1
 711 55 l 1
 711 -100 l 1
 641 -100 l 1
 557 -281 406 -409 184 -484 c 1
 50 -484 l 1
161 161 m 1
 243 76 l 1
 243 -48 l 1
 366 -48 l 1
 451 -131 l 1
 536 -48 l 1
 659 -48 l 1
 659 76 l 1
 743 161 l 1
 659 245 l 1
 659 368 l 1
 536 368 l 1
 451 453 l 1
 366 368 l 1
 243 368 l 1
 243 245 l 1
 161 161 l 1
172 -432 m 1
 176 -432 l 1
 373 -364 509 -254 587 -100 c 1
 558 -100 l 1
 451 -205 l 1
 365 -120 l 1
 322 -237 258 -341 172 -432 c 1
172 754 m 1
 259 658 323 552 365 439 c 1
 451 524 l 1
 558 420 l 1
 587 420 l 1
 506 576 369 688 176 754 c 1
 172 754 l 1
453 -12 m 0
 356 -12 279 65 279 162 c 0
 279 259 353 335 450 335 c 0
 548 335 622 258 622 160 c 0
 622 63 550 -12 453 -12 c 0
333 161 m 1
 451 43 l 1
 571 161 l 1
 451 282 l 1
 333 161 l 1
EndSplineSet
Colour: ffda6b
EndChar

StartChar: _.sing.parantez_tazeeni.left
Encoding: 65640 -1 104
GlifName: _.sing.parantez_tazeeni.left
Width: 866
VWidth: 0
GlyphClass: 2
Flags: HMW
LayerCount: 2
Fore
SplineSet
50 161 m 1
 155 267 l 1
 155 420 l 1
 225 420 l 1
 309 602 460 730 682 805 c 1
 816 805 l 1
 706 696 611 567 551 420 c 1
 674 420 l 1
 674 267 l 1
 780 161 l 1
 674 55 l 1
 674 -100 l 1
 551 -100 l 1
 605 -238 693 -367 816 -484 c 1
 682 -484 l 1
 460 -409 309 -281 225 -100 c 1
 155 -100 l 1
 155 55 l 1
 50 161 l 1
123 161 m 1
 206 76 l 1
 206 -48 l 1
 329 -48 l 1
 414 -131 l 1
 499 -48 l 1
 622 -48 l 1
 622 76 l 1
 705 161 l 1
 622 245 l 1
 622 368 l 1
 499 368 l 1
 414 453 l 1
 329 368 l 1
 206 368 l 1
 206 245 l 1
 123 161 l 1
413 -12 m 0
 316 -12 243 63 243 160 c 0
 243 258 318 335 416 335 c 0
 513 335 587 259 587 162 c 0
 587 65 510 -12 413 -12 c 0
279 -100 m 1
 357 -254 493 -364 690 -432 c 1
 694 -432 l 1
 608 -341 544 -237 501 -120 c 1
 414 -205 l 1
 307 -100 l 1
 279 -100 l 1
279 420 m 1
 307 420 l 1
 414 524 l 1
 501 439 l 1
 543 552 607 658 694 754 c 1
 690 754 l 1
 497 688 360 576 279 420 c 1
295 161 m 1
 414 43 l 1
 533 161 l 1
 414 282 l 1
 295 161 l 1
EndSplineSet
Colour: ffda6b
EndChar

StartChar: _.sing.koroshe.right
Encoding: 65641 -1 105
GlifName: _.sing.koroshe.right
Width: 322
VWidth: 1197
GlyphClass: 2
Flags: HMW
LayerCount: 2
Fore
SplineSet
50 -159 m 1
 50 796 l 1
 272 796 l 1
 272 722 l 1
 147 722 l 1
 147 -84 l 1
 272 -84 l 1
 272 -159 l 1
 50 -159 l 1
EndSplineSet
Colour: ffda6b
EndChar

StartChar: _.sing.koroshe.left
Encoding: 65642 -1 106
GlifName: _.sing.koroshe.left
Width: 323
VWidth: 1197
GlyphClass: 2
Flags: HMW
LayerCount: 2
Fore
SplineSet
50 -81 m 1
 177 -81 l 1
 177 726 l 1
 50 726 l 1
 50 800 l 1
 273 800 l 1
 273 -155 l 1
 50 -155 l 1
 50 -81 l 1
EndSplineSet
Colour: ffda6b
EndChar

StartChar: _.sing.akolad.right
Encoding: 65643 -1 107
GlifName: _.sing.akolad.right
Width: 402
VWidth: 1197
GlyphClass: 2
Flags: HMW
LayerCount: 2
Fore
SplineSet
50 251 m 1
 50 349 l 1
 118 349 150 382 150 464 c 2
 150 620 l 2
 150 701 149 800 352 800 c 1
 352 700 l 1
 270 700 249 674 249 619 c 2
 249 474 l 2
 249 421 232 321 178 300 c 1
 232 279 249 180 249 127 c 2
 249 -19 l 2
 249 -73 270 -100 352 -100 c 1
 352 -200 l 1
 149 -200 150 -101 150 -20 c 2
 150 136 l 2
 150 218 118 251 50 251 c 1
EndSplineSet
Colour: ffda6b
EndChar

StartChar: _.sing.akolad.left
Encoding: 65644 -1 108
GlifName: _.sing.akolad.left
Width: 402
VWidth: 1197
GlyphClass: 2
Flags: HMW
LayerCount: 2
Fore
SplineSet
50 -100 m 1
 131 -100 151 -73 151 -19 c 2
 151 127 l 2
 151 180 169 279 224 300 c 1
 169 321 151 421 151 474 c 2
 151 619 l 2
 151 674 131 700 50 700 c 1
 50 800 l 1
 252 800 252 701 252 620 c 2
 252 464 l 2
 252 382 284 349 352 349 c 1
 352 251 l 1
 284 251 252 218 252 136 c 2
 252 -20 l 2
 252 -101 252 -200 50 -200 c 1
 50 -100 l 1
EndSplineSet
Colour: ffda6b
EndChar

StartChar: _.mark.maad
Encoding: 65645 -1 109
GlifName: _.mark.maad
Width: 0
VWidth: 1352
GlyphClass: 2
Flags: HMW
LayerCount: 2
Fore
SplineSet
0 -1 m 1
 0 93 15 154 46 184 c 1
 111 168 168 160 220 160 c 0
 272 160 329 173 389 199 c 1
 419 119 l 1
 355 87 287 71 217 71 c 0
 181 71 146 75 110 84 c 1
 90 72 80 43 80 -1 c 1
 0 -1 l 1
EndSplineSet
Colour: ffda6b
EndChar

StartChar: _.mark.fatheh
Encoding: 65646 -1 110
GlifName: _.mark.fatheh
Width: 0
VWidth: 2310
GlyphClass: 2
Flags: HMW
LayerCount: 2
Fore
SplineSet
0 6 m 1
 0 84 l 1
 283 193 l 1
 283 118 l 1
 0 6 l 1
EndSplineSet
Colour: ffda6b
EndChar

StartChar: _.mark.kasreh
Encoding: 65647 -1 111
GlifName: _.mark.kasreh
Width: 0
VWidth: 2384
GlyphClass: 2
Flags: HMW
LayerCount: 2
Fore
SplineSet
0 -106 m 1
 283 4 l 1
 283 -72 l 1
 0 -185 l 1
 0 -106 l 1
EndSplineSet
Colour: ffda6b
EndChar

StartChar: _.mark.zameh
Encoding: 65648 -1 112
GlifName: _.mark.zameh
Width: 0
VWidth: 2277
GlyphClass: 2
Flags: HMW
LayerCount: 2
Fore
SplineSet
251 204 m 1
 263 199 283 196 298 191 c 1
 283 124 l 1
 268 129 l 2
 246 136 229 144 215 150 c 1
 171 91 104 44 18 10 c 1
 0 4 l 1
 0 86 l 1
 10 86 l 1
 67 100 114 129 155 170 c 1
 116 184 85 200 64 221 c 1
 59 225 l 1
 59 231 l 1
 61 323 114 385 203 390 c 0
 205 390 209 390 211 390 c 1
 242 376 267 329 267 282 c 0
 267 261 261 235 251 204 c 1
121 262 m 1
 131 255 144 247 162 240 c 0
 177 235 189 231 196 229 c 1
 203 241 206 253 206 263 c 0
 206 289 197 307 179 314 c 1
 142 314 130 294 121 262 c 1
EndSplineSet
Colour: ffda6b
EndChar

StartChar: _.mark.tanvin_fatheh
Encoding: 65649 -1 113
GlifName: _.mark.tanvin_fatheh
Width: 0
VWidth: 2280
GlyphClass: 2
Flags: HMW
LayerCount: 2
Fore
SplineSet
0 4 m 1
 0 80 l 1
 286 193 l 1
 286 116 l 1
 0 4 l 1
0 140 m 1
 0 218 l 1
 286 330 l 1
 286 253 l 1
 0 140 l 1
EndSplineSet
Colour: ffda6b
EndChar

StartChar: _.mark.tanvin_kasreh
Encoding: 65650 -1 114
GlifName: _.mark.tanvin_kasreh
Width: 0
VWidth: 2413
GlyphClass: 2
Flags: HMW
LayerCount: 2
Fore
SplineSet
0 -112 m 1
 286 -0 l 1
 286 -77 l 1
 0 -190 l 1
 0 -112 l 1
0 -250 m 1
 286 -137 l 1
 286 -214 l 1
 0 -326 l 1
 0 -250 l 1
EndSplineSet
Colour: ffda6b
EndChar

StartChar: _.mark.tanvin_zameh
Encoding: 65651 -1 115
GlifName: _.mark.tanvin_zameh
Width: 0
VWidth: 2273
GlyphClass: 2
Flags: HMW
LayerCount: 2
Fore
SplineSet
285 385 m 0
 342 385 362 337 362 285 c 0
 362 255 355 224 343 202 c 1
 378 194 l 1
 378 123 l 1
 310 144 l 1
 266 82 184 29 74 -4 c 1
 49 58 l 1
 69 64 90 72 110 81 c 1
 109 122 84 145 49 145 c 0
 40 145 31 143 21 140 c 1
 0 193 l 1
 21 200 40 204 58 204 c 0
 107 204 144 175 160 104 c 1
 197 125 229 148 246 166 c 1
 199 177 172 186 144 224 c 1
 153 266 163 296 177 316 c 0
 206 354 240 385 285 385 c 0
209 253 m 1
 231 235 261 229 284 220 c 1
 292 233 298 251 298 268 c 0
 298 286 291 303 272 312 c 1
 234 310 221 285 209 253 c 1
EndSplineSet
Colour: ffda6b
EndChar

StartChar: _.mark.tashdid
Encoding: 65652 -1 116
GlifName: _.mark.tashdid
Width: 0
VWidth: 1833
GlyphClass: 2
Flags: HMW
LayerCount: 2
Fore
SplineSet
0 116 m 2
 0 167 l 1
 57 181 l 1
 57 117 l 2
 57 78 68 58 91 58 c 0
 119 58 133 89 133 149 c 2
 133 204 l 1
 190 224 l 1
 190 149 l 2
 190 116 202 98 225 98 c 0
 251 98 263 114 263 145 c 0
 263 149 261 182 257 248 c 1
 316 261 l 1
 323 151 l 1
 323 71 291 32 229 32 c 0
 204 32 184 43 167 64 c 1
 149 25 122 1 90 1 c 0
 30 1 0 40 0 116 c 2
EndSplineSet
Colour: ffda6b
EndChar

StartChar: _.mark.hamze
Encoding: 65653 -1 117
GlifName: _.mark.hamze
Width: 0
VWidth: 1841
GlyphClass: 2
Flags: HMW
LayerCount: 2
Fore
SplineSet
0 64 m 1
 42 84 66 95 76 100 c 1
 48 122 36 152 36 183 c 0
 36 244 84 306 149 306 c 0
 182 306 219 290 257 250 c 1
 217 205 l 1
 199 226 176 235 155 235 c 0
 122 235 92 214 92 188 c 0
 92 169 109 147 154 129 c 1
 180 138 219 147 271 157 c 1
 281 90 l 1
 222 78 181 67 160 60 c 0
 138 53 92 33 23 1 c 1
 0 64 l 1
EndSplineSet
Colour: ffda6b
EndChar

StartChar: _.mark.sakon
Encoding: 65654 -1 118
GlifName: _.mark.sakon
Width: 0
VWidth: 2099
GlyphClass: 2
Flags: HMW
LayerCount: 2
Fore
SplineSet
0 101 m 0
 0 176 30 233 92 271 c 0
 97 273 96 273 102 272 c 0
 172 255 240 198 240 119 c 0
 240 41 183 0 108 -0 c 0
 55 0 0 48 0 101 c 0
63 109 m 0
 63 88 81 77 119 77 c 0
 145 77 166 86 183 101 c 1
 183 153 139 179 102 196 c 1
 75 176 63 147 63 109 c 0
EndSplineSet
Colour: ffda6b
EndChar

StartChar: _.mark.alef
Encoding: 65655 -1 119
GlifName: _.mark.alef
Width: 0
VWidth: 2091
GlyphClass: 2
Flags: HMW
LayerCount: 2
Fore
SplineSet
0 194 m 1
 58 248 l 1
 65 237 l 1
 101 180 111 134 111 81 c 0
 111 56 109 30 106 -0 c 1
 55 -0 l 1
 55 69 44 127 5 186 c 1
 0 194 l 1
EndSplineSet
Colour: ffda6b
EndChar

StartChar: _.sing.momaiez
Encoding: 65656 -1 120
GlifName: _.sing.momaiez
Width: 521
VWidth: 1352
GlyphClass: 2
Flags: HMW
LayerCount: 2
Fore
SplineSet
50 -206 m 1
 373 400 l 1
 471 400 l 1
 144 -206 l 1
 50 -206 l 1
EndSplineSet
Colour: ffda6b
EndChar

StartChar: _.sing.hezare
Encoding: 65657 -1 121
GlifName: _.sing.hezare
Width: 221
VWidth: 1197
GlyphClass: 2
Flags: HMW
LayerCount: 2
Fore
SplineSet
50 900 m 1
 171 900 l 1
 133 850 140 756 135 699 c 1
 84 699 l 1
 84 735 81 820 50 900 c 1
EndSplineSet
Colour: ffda6b
EndChar

StartChar: _.sing.darsad
Encoding: 65658 -1 122
GlifName: _.sing.darsad
Width: 700
VWidth: 1197
GlyphClass: 2
Flags: HMW
LayerCount: 2
Fore
SplineSet
50 -4 m 1
 538 800 l 1
 650 800 l 1
 162 -4 l 1
 50 -4 l 1
87 614 m 1
 87 788 l 1
 264 788 l 1
 264 614 l 1
 87 614 l 1
402 84 m 1
 402 261 l 1
 581 261 l 1
 581 84 l 1
 402 84 l 1
EndSplineSet
Colour: ffda6b
EndChar

StartChar: _.sing.mosavi
Encoding: 65659 -1 123
GlifName: _.sing.mosavi
Width: 772
VWidth: 1197
GlyphClass: 2
Flags: HMW
LayerCount: 2
Fore
SplineSet
50 91 m 1
 50 181 l 1
 722 181 l 1
 722 91 l 1
 50 91 l 1
50 306 m 1
 50 395 l 1
 722 395 l 1
 722 306 l 1
 50 306 l 1
EndSplineSet
Colour: ffda6b
EndChar

StartChar: _.sing.star5par
Encoding: 65660 -1 124
GlifName: _.sing.5par
Width: 654
VWidth: 1197
GlyphClass: 2
Flags: HMW
LayerCount: 2
Fore
SplineSet
200 2 m 0
 159 2 129 29 129 66 c 0
 129 83 133 99 142 111 c 2
 215 212 l 1
 97 250 l 2
 65 260 50 282 50 316 c 0
 50 349 77 383 110 383 c 0
 124 383 134 382 140 380 c 2
 259 341 l 1
 259 468 l 2
 259 510 293 535 327 535 c 0
 363 535 396 505 396 468 c 2
 396 341 l 1
 514 380 l 2
 521 382 531 383 545 383 c 0
 576 383 604 350 604 316 c 0
 604 282 588 260 557 250 c 2
 437 212 l 1
 510 111 l 2
 520 98 524 83 524 69 c 0
 524 33 494 2 453 2 c 0
 433 2 416 11 401 29 c 1
 327 133 l 1
 252 29 l 2
 238 11 221 2 200 2 c 0
EndSplineSet
Colour: ffda6b
EndChar

StartChar: _.beh_k.init
Encoding: 65661 -1 125
GlifName: _.beh_k.init
Width: 387
VWidth: 1197
GlyphClass: 2
UnlinkRmOvrlpSave: 1
Flags: HMW
LayerCount: 2
Fore
SplineSet
-50 50 m 0
 -50 76 -26 100 0 100 c 2
 122 100 l 2
 171 100 229 124 229 177 c 0
 229 226 210 299 178 386 c 1
 270 425 l 1
 304 328 323 245 323 180 c 0
 323 56 243 0 122 -0 c 2
 0 -0 l 2
 -26 0 -50 24 -50 50 c 0
EndSplineSet
Colour: ffda6b
EndChar

StartChar: _.beh_k.medi
Encoding: 65662 -1 126
GlifName: _.beh_k.medi
Width: 466
VWidth: 1304
GlyphClass: 2
UnlinkRmOvrlpSave: 1
Flags: HMW
LayerCount: 2
Fore
SplineSet
-50 50 m 0
 -50 76 -26 100 0 100 c 2
 105 100 l 2
 162 100 233 116 233 184 c 2
 233 321 l 1
 323 321 l 1
 323 184 l 2
 323 116 394 100 451 100 c 2
 466 100 l 1
 466 -0 l 1
 451 -0 l 2
 372 0 316 18 279 55 c 1
 279 56 l 1
 279 55 l 1
 242 18 183 0 105 -0 c 2
 0 -0 l 2
 -26 0 -50 24 -50 50 c 0
EndSplineSet
Colour: ffda6b
EndChar

StartChar: _.sing.3noqte
Encoding: 65663 -1 127
GlifName: _.sing.3noqte
Width: 954
VWidth: 1304
GlyphClass: 2
Flags: HMW
LayerCount: 2
Fore
SplineSet
120 -0 m 0
 82 0 50 32 50 70 c 0
 50 108 82 140 120 140 c 0
 158 140 190 108 190 70 c 0
 190 32 158 0 120 -0 c 0
477 -0 m 0
 439 0 409 32 409 70 c 0
 409 108 439 140 477 140 c 0
 516 140 547 109 547 70 c 0
 547 31 516 0 477 -0 c 0
835 -0 m 0
 796 0 765 32 765 70 c 0
 765 108 796 140 835 140 c 0
 873 140 904 109 904 70 c 0
 904 31 873 0 835 -0 c 0
EndSplineSet
Colour: ffda6b
EndChar

StartChar: s.khat_tire
Encoding: 8208 8208 138
GlifName: s.khat_tire
Width: 504
VWidth: 0
GlyphClass: 2
Flags: HMW
LayerCount: 2
Fore
SplineSet
55 229 m 1
 55 307 l 1
 451 307 l 1
 451 229 l 1
 55 229 l 1
EndSplineSet
Colour: d7d7d7
EndChar

StartChar: s.zwj
Encoding: 8205 8205 174
GlifName: s.zwj
Width: 0
VWidth: 1331
GlyphClass: 2
Flags: HMW
LayerCount: 2
Fore
SplineSet
25 -327 m 1
 -25 -327 l 1
 -25 579 l 1
 -111 491 l 1
 -141 521 l 1
 -30 631 l 1
 -141 740 l 1
 -111 772 l 1
 0 660 l 1
 111 772 l 1
 141 740 l 1
 30 631 l 1
 141 521 l 1
 111 491 l 1
 25 579 l 1
 25 -327 l 1
EndSplineSet
Colour: d7d7d7
EndChar

StartChar: s.tagsim
Encoding: 247 247 182
GlifName: s.tagsim
Width: 564
VWidth: 1278
GlyphClass: 2
Flags: HMW
LayerCount: 2
Fore
SplineSet
59 352 m 1
 59 429 l 1
 506 429 l 1
 506 352 l 1
 59 352 l 1
234 204 m 1
 234 299 l 1
 330 299 l 1
 330 204 l 1
 234 204 l 1
234 482 m 1
 234 577 l 1
 330 577 l 1
 330 482 l 1
 234 482 l 1
EndSplineSet
Colour: d7d7d7
EndChar

StartChar: s.zwnj
Encoding: 8204 8204 215
GlifName: s.zwnj
Width: 0
VWidth: 1331
GlyphClass: 2
Flags: HMW
LayerCount: 2
Fore
SplineSet
-25 -308 m 1
 -25 710 l 1
 25 710 l 1
 25 -308 l 1
 -25 -308 l 1
EndSplineSet
Colour: d7d7d7
EndChar

StartChar: s.dotted_circle
Encoding: 9676 9676 220
GlifName: s.dotted_circle
Width: 576
VWidth: 1890
GlyphClass: 2
Flags: HMW
LayerCount: 2
Fore
SplineSet
60 181 m 0
 60 196 67 203 82 203 c 0
 97 203 104 196 104 182 c 2
 104 180 l 2
 104 166 97 159 82 159 c 0
 67 159 60 166 60 181 c 0
76 103 m 0
 76 118 83 126 98 126 c 0
 113 126 120 118 120 103 c 0
 120 88 113 80 98 80 c 0
 83 80 76 88 76 103 c 0
76 259 m 0
 76 274 83 282 98 282 c 0
 113 282 120 274 120 259 c 0
 120 244 113 236 99 236 c 0
 84 236 76 244 76 259 c 0
120 34 m 0
 120 49 127 56 142 57 c 0
 157 56 164 49 165 34 c 0
 164 19 157 12 142 12 c 0
 127 12 120 19 120 34 c 0
120 326 m 0
 120 341 127 348 142 349 c 0
 157 348 164 341 165 326 c 0
 164 311 157 304 142 304 c 0
 127 304 120 311 120 326 c 0
187 -8 m 0
 187 7 195 14 210 14 c 0
 225 14 233 7 233 -8 c 0
 233 -23 225 -30 210 -30 c 0
 195 -30 187 -23 187 -8 c 0
187 372 m 0
 187 387 195 394 210 394 c 0
 225 394 233 387 233 372 c 0
 233 357 225 350 210 350 c 0
 195 350 187 357 187 372 c 0
310 -26 m 0
 310 -41 303 -48 288 -48 c 0
 273 -48 266 -41 265 -26 c 0
 266 -11 273 -4 288 -3 c 0
 303 -4 310 -11 310 -26 c 0
288 410 m 0
 303 410 310 403 310 388 c 0
 310 373 303 366 288 365 c 0
 273 366 266 373 265 388 c 0
 266 403 273 410 288 410 c 0
344 -8 m 0
 344 7 352 14 367 14 c 0
 382 14 390 7 390 -8 c 0
 390 -22 382 -30 367 -31 c 0
 352 -30 344 -22 344 -8 c 0
344 372 m 0
 344 387 352 394 367 394 c 0
 382 394 390 387 390 372 c 0
 390 358 382 350 367 349 c 0
 352 350 344 358 344 372 c 0
412 34 m 0
 412 49 419 56 434 57 c 0
 449 56 456 49 456 34 c 0
 456 19 449 12 434 12 c 0
 419 12 412 19 412 34 c 0
412 326 m 0
 412 341 419 348 434 349 c 0
 449 348 456 341 456 326 c 0
 456 311 449 304 434 304 c 0
 419 304 412 311 412 326 c 0
456 103 m 0
 456 118 463 126 478 126 c 0
 492 126 500 118 501 103 c 0
 500 88 492 80 478 80 c 0
 463 80 456 88 456 103 c 0
456 259 m 0
 456 274 463 282 478 282 c 0
 492 282 500 274 501 259 c 0
 500 244 492 236 478 236 c 0
 463 236 456 244 456 259 c 0
472 181 m 0
 472 196 479 203 494 203 c 0
 509 203 516 196 517 182 c 2
 517 180 l 2
 516 166 509 159 494 159 c 0
 479 159 472 166 472 181 c 0
EndSplineSet
Colour: d7d7d7
EndChar

StartChar: s.figure_dash
Encoding: 8210 8210 224
GlifName: s.figure_dash
Width: 600
VWidth: 0
GlyphClass: 2
Flags: HMW
LayerCount: 2
Fore
SplineSet
55 229 m 1
 55 307 l 1
 547 307 l 1
 547 229 l 1
 55 229 l 1
EndSplineSet
Colour: d7d7d7
EndChar

StartChar: s.em_dash
Encoding: 8212 8212 263
GlifName: s.em_dash
Width: 1200
VWidth: 1175
GlyphClass: 2
Flags: HMW
LayerCount: 2
Fore
SplineSet
55 229 m 1
 55 307 l 1
 1147 307 l 1
 1147 229 l 1
 55 229 l 1
EndSplineSet
Colour: d7d7d7
EndChar

StartChar: s.bullet
Encoding: 8226 8226 278
GlifName: s.bullet
Width: 602
VWidth: 1331
GlyphClass: 2
Flags: HMW
LayerCount: 2
Fore
SplineSet
532 432 m 0
 532 369 509 315 464 270 c 0
 419 225 365 202 302 202 c 0
 245 202 194 223 147 266 c 0
 100 309 77 357 77 410 c 0
 77 483 99 542 142 585 c 0
 185 628 236 650 295 650 c 0
 368 650 426 630 468 591 c 0
 510 552 532 499 532 432 c 0
EndSplineSet
Colour: d7d7d7
EndChar

StartChar: s.en_dash
Encoding: 8211 8211 310
GlifName: s.en_dash
Width: 600
VWidth: 1175
GlyphClass: 2
Flags: HMW
LayerCount: 2
Fore
SplineSet
55 229 m 1
 55 307 l 1
 547 307 l 1
 547 229 l 1
 55 229 l 1
EndSplineSet
Colour: d7d7d7
EndChar

StartChar: s.horizontal_bar
Encoding: 8213 8213 316
GlifName: s.horizontal_bar
Width: 2400
VWidth: 1175
GlyphClass: 2
Flags: HMW
LayerCount: 2
Fore
SplineSet
55 229 m 1
 55 307 l 1
 2347 307 l 1
 2347 229 l 1
 55 229 l 1
EndSplineSet
Colour: d7d7d7
EndChar

StartChar: s.lrm
Encoding: 8206 8206 317
GlifName: s.lrm
Width: 0
VWidth: 1331
GlyphClass: 2
Flags: HMW
LayerCount: 2
Fore
SplineSet
-25 -308 m 1
 -25 676 l 1
 196 676 l 1
 106 759 l 1
 138 790 l 1
 280 651 l 1
 138 510 l 1
 106 544 l 1
 196 628 l 1
 22 628 l 1
 22 -308 l 1
 -25 -308 l 1
EndSplineSet
Colour: d7d7d7
EndChar

StartChar: s.rlm
Encoding: 8207 8207 346
GlifName: s.rlm
Width: 0
VWidth: 1331
GlyphClass: 2
Flags: HMW
LayerCount: 2
Fore
SplineSet
22 676 m 1
 22 -308 l 1
 -25 -308 l 1
 -25 628 l 1
 -196 628 l 1
 -108 544 l 1
 -138 510 l 1
 -280 651 l 1
 -138 790 l 1
 -108 759 l 1
 -196 676 l 1
 22 676 l 1
EndSplineSet
Colour: d7d7d7
EndChar

StartChar: _.sing.yeh_domBoride
Encoding: 65664 -1 400
GlifName: _.mark.he_yeh
Width: 419
VWidth: 1304
GlyphClass: 1
UnlinkRmOvrlpSave: 1
Flags: HMW
LayerCount: 2
Fore
SplineSet
50 -0 m 1
 68 66 l 1
 74 66 81 66 88 66 c 0
 184 66 309 94 309 121 c 0
 309 132 287 143 230 152 c 0
 192 157 147 169 145 231 c 0
 145 326 250 365 326 365 c 1
 326 300 l 1
 250 300 195 274 195 248 c 0
 195 231 217 214 268 204 c 0
 338 190 369 164 369 134 c 0
 369 73 239 0 50 -0 c 1
EndSplineSet
EndChar

StartChar: uni0000
Encoding: 0 0 401
GlifName: uni0000
Width: 497
VWidth: 0
GlyphClass: 2
Flags: HMW
LayerCount: 2
Fore
SplineSet
59 -251 m 1
 59 709 l 1
 438 709 l 1
 438 -251 l 1
 59 -251 l 1
105 -181 m 1
 387 -181 l 1
 387 648 l 1
 105 648 l 1
 105 -181 l 1
EndSplineSet
EndChar

StartChar: _.ghaf.medi
Encoding: 65665 -1 402
GlifName: _.ghaf.medi
Width: 641
VWidth: 0
GlyphClass: 2
Flags: HMW
LayerCount: 2
Fore
SplineSet
-50 50 m 0
 -50 76 -25 100 0 100 c 2
 147 100 l 2
 272 100 309 130 309 179 c 0
 309 246 258 308 213 352 c 0
 145 418 63 467 45 479 c 1
 62 577 66 591 104 618 c 0
 202 683 360 758 493 800 c 1
 531 708 l 1
 403 669 259 603 143 533 c 1
 182 507 237 468 282 423 c 0
 366 341 423 262 499 178 c 0
 541 134 586 100 641 100 c 1
 641 -0 l 1
 514 0 459 66 397 146 c 1
 380 59 293 0 163 -0 c 2
 0 -0 l 2
 -25 0 -50 24 -50 50 c 0
64 706 m 1
 178 780 265 825 408 874 c 1
 430 820 l 1
 303 777 208 730 92 655 c 1
 64 706 l 1
EndSplineSet
Colour: ffda6b
EndChar

StartChar: _.ghaf.init
Encoding: 65666 -1 403
GlifName: _.ghaf.init
Width: 595
VWidth: 0
GlyphClass: 2
Flags: HMW
LayerCount: 2
Fore
SplineSet
-50 50 m 0
 -50 76 -25 100 0 100 c 2
 147 100 l 2
 271 100 309 130 309 178 c 0
 309 320 78 457 45 479 c 1
 62 577 66 591 104 618 c 0
 202 683 360 758 493 800 c 1
 531 708 l 1
 403 669 259 603 143 533 c 1
 237 470 401 352 401 180 c 0
 401 75 311 0 163 -0 c 2
 0 -0 l 2
 -25 0 -50 24 -50 50 c 0
64 706 m 1
 178 780 265 825 408 874 c 1
 430 820 l 1
 303 777 208 730 92 655 c 1
 64 706 l 1
EndSplineSet
Colour: ffda6b
EndChar

StartChar: _.la.isol.fa
Encoding: 65667 -1 404
Width: 574
VWidth: 0
Flags: HMW
LayerCount: 2
Fore
SplineSet
64 573 m 1
 144 619 l 1
 309 164 l 1
 225 133 l 1
 64 573 l 1
101 44 m 1
 331 96 420 142 420 260 c 2
 420 800 l 1
 510 800 l 1
 510 284 l 2
 510 133 491 25 114 -51 c 1
 101 44 l 1
EndSplineSet
Colour: ffda6b
EndChar

StartChar: _.la.fina.fa
Encoding: 65668 -1 405
Width: 691
VWidth: 0
Flags: HMW
LayerCount: 2
Fore
SplineSet
64 573 m 1
 144 619 l 1
 309 164 l 1
 225 133 l 1
 64 573 l 1
101 44 m 1
 331 96 420 142 420 260 c 2
 420 800 l 1
 510 800 l 1
 510 213 l 1
 543 127 579 100 691 100 c 1
 691 -0 l 1
 591 0 509 17 457 93 c 1
 407 35 307 -12 114 -51 c 1
 101 44 l 1
EndSplineSet
Colour: ffda6b
EndChar

StartChar: _.sing.alef_maad
Encoding: 65671 -1 408
Width: 519
VWidth: 1352
Flags: HMW
LayerCount: 2
Fore
SplineSet
50 -0 m 1
 50 94 65 155 96 186 c 1
 143 181 188 173 239 173 c 0
 296 173 359 183 439 218 c 1
 469 120 l 1
 386 80 306 69 246 69 c 0
 200 69 166 76 151 81 c 1
 131 69 130 44 130 -0 c 1
 50 -0 l 1
EndSplineSet
Colour: ffda6b
EndChar

StartChar: _.sing.star
Encoding: 65672 -1 409
Width: 573
VWidth: 1197
Flags: HMW
LayerCount: 2
Fore
SplineSet
50 143 m 1
 240 246 l 1
 50 346 l 1
 82 397 l 1
 258 292 l 1
 258 490 l 1
 317 490 l 1
 317 292 l 1
 493 397 l 1
 523 346 l 1
 336 246 l 1
 523 143 l 1
 493 92 l 1
 317 197 l 1
 317 1 l 1
 258 1 l 1
 258 197 l 1
 82 92 l 1
 50 143 l 1
EndSplineSet
Colour: ffda6b
EndChar

StartChar: _.sing.zarb
Encoding: 65673 -1 410
Width: 706
VWidth: 1279
Flags: HMW
LayerCount: 2
Fore
SplineSet
50 64 m 1
 288 304 l 1
 50 544 l 1
 112 608 l 1
 353 367 l 1
 593 608 l 1
 656 544 l 1
 414 304 l 1
 656 64 l 1
 593 1 l 1
 353 241 l 1
 112 1 l 1
 50 64 l 1
EndSplineSet
Colour: ffda6b
EndChar

StartChar: _.sing.khateh_amoodi
Encoding: 65674 -1 411
Width: 189
VWidth: 1331
Flags: HMW
LayerCount: 2
Fore
SplineSet
50 1 m 1
 50 363 l 1
 139 363 l 1
 139 1 l 1
 50 1 l 1
50 438 m 1
 50 800 l 1
 139 800 l 1
 139 438 l 1
 50 438 l 1
EndSplineSet
Colour: ffda6b
EndChar

StartChar: _.num.0.ar
Encoding: 65675 -1 412
Width: 400
VWidth: 1424
Flags: HW
LayerCount: 2
Fore
SplineSet
75 241 m 1
 183 377 l 1
 325 271 l 1
 213 130 l 1
 75 241 l 1
EndSplineSet
EndChar
